**ABCDEFGHIJKLMNOPQRSTUVWXYZabcdefghijklmnopqrstuvwxyz**************************
**PARASOLID !"#$%&'()*+,-./:;<=>?@[\]^_`{|}~0123456789**************************
**PART1;
MC=x64/Windows NT;
MC_MODEL=genuineintel family 6 model 7 stepping 6, intel(r) core(tm)2 duo cpu     t8100  @ 2.10ghz;
MC_ID=darkflame;
OS=windows nt (x64);
OS_RELEASE=6.1 (workstation) (build 7601: service pack 1) ;
FRU=mdc_ugii_v7.0_djl_can_vrh;
APPL=unigraphics;
SITE=unknown;
USER=Hammerhead;
FORMAT=text;
GUISE=transmit;
KEY=1717TSR;
FILE=E:\WORK\MISC\DI\MOTORS\2011-11-25\1717TSR.x_t;
DATE=21-dec-2011;
**PART2;
SCH=SCH_2201175_20000;
USFLD_SIZE=0;
**PART3;
**END_OF_HEADER*****************************************************************
T51 : TRANSMIT FILE created by modeller version 220117523 SCH_2201175_20000_1300
6186 0 12 27 CCCCCCCCCCCCCCCCCCCCCCCA16 index_map_offset0 0 1 dA9 index_map82 0
 A17 node_id_index_map82 0 A20 schema_embedding_map82 0 Z1 2392 2 3 0 0 0 0 1e3
 1e-8 0 0 0 1 0 1 1 4 5 6 7 8 9 10 0 0 0 0 81 255 2 2 2275 11 1 0 0 0 0 12 13 70
 11 CI9 list_type0 0 1 uI10 notransmit0 0 1 lCCCDCCDI12 finger_index0 0 1 dI12 f
inger_block1012 0 CZ3 0 4 T1 0 0 3 20 1 14 14 13 255 4 3 0 1 0 15 0 0 16 0 50 25
5 5 1244 0 17 18 0 0 +.001 -.0053 -.0037 .957826285221152 666846745524378e-29 -.
287347885566344 -.287347885566344 0 -.957826285221152 30 255 6 2020 0 1 19 0 20
 +-.001 -.0051 -198993751758074e-31 251078397838748e-29 -1 -3816391647148915e-31
 29 255 7 1770 0 10 21 0 .000999999999999986 .0051 -.001 19 255 8 80 0 1 16 0 22
 V16 255 9 1743 0 ?23 0 24 25 0 0 1 18 255 10 1766 0 26 0 27 7 ?1 17 255 26 0 28
 29 30 10 31 32 0 33 -18 27 1761 0 34 10 35 21 ?1 17 34 0 36 37 33 27 38 39 0 40
 -18 35 1756 0 41 27 42 43 ?1 29 21 1765 0 27 43 7 -.001000000000000014 .0051 -.
001 29 43 1760 0 35 44 21 .001 -.0051000000000116 -.001 29 44 1737 0 42 45 43 -.
0058354519961836 -.00510000000002322 113331349346503e-32 18 42 1735 0 46 35 47 4
4 ?1 29 45 1734 0 47 48 44 -.00583545199621089 .00509999999999199 11333134935017
7e-32 18 47 1732 0 49 42 50 45 ?1 29 48 1731 0 50 51 45 .00583545199618363 -.005
10000000002319 -1457742043228532e-32 18 50 1729 0 52 47 53 48 ?1 29 51 1728 0 53
 54 48 .00583545199620387 .0051 -1457742043231258e-32 18 53 1726 0 55 50 56 51 ?
1 29 54 1418 0 56 57 51 .000450000000000007 -.0053 -.00195 18 56 1416 0 58 53 59
 54 ?1 29 57 1386 0 59 60 54 -.000449999999999995 -.0051 -.0032 18 59 1384 0 61
 56 62 57 ?1 29 60 1172 0 62 63 57 .001 -.0051 -.0037 18 62 1169 0 64 59 65 60 ?
1 29 63 1158 0 65 66 60 -85e-5 -.0051 -.0042 18 65 1156 0 67 62 68 63 ?1 29 66 1
155 0 68 69 63 85e-5 -.0051 -.0042 18 68 1153 0 70 65 71 66 ?1 29 69 1138 0 71 7
2 66 .001 -.0053 -.0037 18 71 1135 0 73 68 74 69 ?1 29 72 1134 0 74 75 69 85e-5
 -.0053 -.0042 18 74 1132 0 76 71 77 72 ?1 29 75 1131 0 77 78 72 -85e-5 -.0053 -
.0042 18 77 1129 0 79 74 80 75 ?1 29 78 1121 0 80 81 75 -.001 -.0053 -.0037 18 8
0 1119 0 82 77 83 78 ?1 29 81 1118 0 83 84 78 -.001 -.0051 -.0037 18 83 1115 0 8
5 80 86 81 ?1 29 84 971 0 86 87 81 -.001 -.0053 -199757030087504e-31 18 86 969 0
 88 83 89 84 ?1 29 87 704 0 89 90 84 .000449999999999992 .0053 -.0032 18 89 702
 0 91 86 92 87 ?1 29 90 678 0 92 93 87 .000449999999999992 .0051 -.0032 18 92 67
6 0 94 89 95 90 ?1 29 93 510 0 95 96 90 .000999999999999983 .0051 -.0037 18 95 5
07 0 97 92 98 93 ?1 29 96 499 0 98 99 93 -.001000000000000018 .0051 -.0037 18 98
 496 0 100 95 101 96 ?1 29 99 481 0 101 102 96 -.001000000000000018 .0053 -.0037
 18 101 478 0 103 98 104 99 ?1 29 102 477 0 104 105 99 .000999999999999984 .0053
 -.0037 18 104 474 0 106 101 107 102 ?1 29 105 463 0 107 108 102 -.0008500000000
00017 .0051 -.0042 18 107 461 0 109 104 110 105 ?1 29 108 460 0 110 111 105 .000
849999999999983 .0051 -.0042 18 110 458 0 112 107 113 108 ?1 29 111 457 0 113 11
4 108 .000849999999999984 .0053 -.0042 18 113 455 0 115 110 116 111 ?1 29 114 45
4 0 116 117 111 -.000850000000000018 .0053 -.0042 18 116 452 0 118 113 119 114 ?
1 29 117 313 0 119 120 114 -.001000000000000012 .0053 -618465137473476e-32 18 11
9 311 0 121 116 122 117 ?1 29 120 310 0 122 123 117 -.001000000000000012 .0051 -
662874058458482e-32 18 122 308 0 124 119 125 120 1e-8 1 29 123 304 0 125 126 120
 .000999999999999989 .0053 -354787169125001e-32 18 125 302 0 127 122 128 123 ?1
 29 126 420 0 128 129 123 .000999999999999988 .0051 -3991960901100075e-33 18 128
 364 0 130 125 131 126 1e-8 1 29 129 837 0 131 132 126 -.000450000000000016 .005
3 -.0032 18 131 785 0 133 128 134 129 ?1 29 132 838 0 134 135 129 -.000450000000
000013 .0053 -.00195 18 134 783 0 136 131 137 132 ?1 29 135 839 0 137 138 132 .0
00449999999999994 .0053 -.00195 18 137 779 0 139 134 140 135 ?1 29 138 841 0 140
 141 135 -.000450000000000013 .0051 -.00195 18 140 780 0 142 137 143 138 ?1 29 1
41 842 0 143 144 138 .000449999999999994 .0051 -.00195 18 143 782 0 145 140 146
 141 ?1 29 144 843 0 146 147 141 -.000450000000000015 .0051 -.0032 18 146 784 0
 148 143 149 144 ?1 29 147 1083 0 149 150 144 -.001 -.0051 -198993751758074e-31
 18 149 1030 0 151 146 152 147 1e-8 1 29 150 1084 0 152 153 147 .001 -.0051 -172
6259549232265e-32 18 152 1029 0 154 149 155 150 1e-8 1 29 153 1085 0 155 156 150
 .001 -.0053 -173389233252656e-31 18 155 1028 0 157 152 158 153 ?1 29 156 1545 0
 158 159 153 -45e-5 -.0053 -.0032 18 158 1491 0 160 155 161 156 ?1 29 159 1546 0
 161 162 156 -45e-5 -.0053 -.00195 18 161 1489 0 163 158 164 159 ?1 29 162 1548
 0 164 165 159 45e-5 -.0053 -.0032 18 164 1493 0 166 161 167 162 ?1 29 165 1549
 0 167 168 162 -45e-5 -.0051 -.00195 18 167 1490 0 169 164 170 165 ?1 29 168 155
0 0 170 171 165 .000450000000000007 -.0051 -.00195 18 170 1487 0 172 167 173 168
 ?1 29 171 1552 0 173 174 168 45e-5 -.0051 -.0032 18 173 1488 0 175 170 176 171
 ?1 29 174 1986 0 176 177 171 -.001 -.00510000000001161 -.001 18 176 1903 0 178
 173 179 174 ?1 29 177 1994 0 179 180 174 .00583545199618363 -.00510000000002319
 -.001 18 179 1910 0 181 176 182 177 ?1 29 180 1995 0 182 183 177 .0058354519962
0387 .0051 -.001 18 182 1909 0 184 179 185 180 ?1 29 183 1996 0 185 186 180 -.00
583545199621089 .00509999999999199 -.001 18 185 1906 0 187 182 188 183 ?1 29 186
 1997 0 188 189 183 -.0058354519961836 -.00510000000002322 -.001 18 188 1911 0 1
90 185 191 186 ?1 29 189 2097 0 191 192 186 1901357994620675e-32 .005 .014124462
11310778 18 191 2075 0 193 188 194 189 ?1 29 192 2140 0 194 195 189 -.0043301270
18922185 .0025 .01412446211310778 18 194 2121 0 196 191 197 192 ?1 29 195 2173 0
 197 198 192 -.004330127018922205 -.0025 .01412446211310778 18 197 2154 0 199 19
4 200 195 ?1 29 198 2206 0 200 201 195 -2095647023930075e-32 -.005 .014124462113
10778 18 200 2187 0 202 197 203 198 ?1 29 201 2239 0 203 204 198 .00433012701892
218 -.0025 .01412446211310778 18 203 2220 0 205 200 206 201 ?1 29 204 2272 0 206
 0 201 .004330127018922205 .0025 .01412446211310778 18 206 2253 0 207 203 0 204
 ?1 17 207 0 208 207 207 206 0 0 0 0 ?15 255 208 2257 0 207 209 0 14 255 209 225
4 210 ?211 212 213 4 214 -0 0 211 212 22 81 1 210 2390 215 209 216 0 217 218 219
 14 211 2261 218 ?0 209 220 4 221 -0 0 0 209 22 14 212 2228 217 ?209 222 223 4 2
24 -0 0 209 222 22 15 213 2256 0 225 209 208 52 255 214 2269 0 209 0 221 0 +.004
330127018922205 .0025 .0145 619418615866958e-30 -1134818923691876e-30 1 625e-6 .
857167300702112 .515038074910054 .5 -.866025403784439 -129249132454596e-29 13 22
 79 0 0 0 0 0 0 8 15 14 15 382 226 ?227 0 228 4 229 -0 0 227 0 22 81 1 226 2286
 215 15 230 0 0 231 232 14 227 1046 231 ?233 15 234 4 235 -0 0 233 15 22 15 228
 692 0 236 15 36 50 229 403 0 15 237 238 0 +.000999999999999982 .0051 -.0042 867
361737988403e-30 1 -116759502878476e-44 -1 867361737988403e-30 0 50 237 404 0 23
9 240 229 0 +-.00100000000000002 .0051 -.0042 1 2989043273689e-42 -1346145417358
002e-30 -1346145417358002e-30 0 -1 50 238 402 0 241 229 242 0 +.0009999999999999
83 .0053 -.0042 -1 4336808689942025e-30 1346145417358002e-30 -4336808689942025e-
30 -1 0 14 241 377 243 ?239 244 28 4 238 -0 0 239 244 22 50 242 401 0 245 238 24
6 0 +-.00100000000000002 .0053 -.0042 -867361737988403e-30 -1 116759502878476e-4
4 1 -867361737988403e-30 0 14 245 372 247 ?248 233 249 4 242 -0 0 248 233 22 51
 255 246 153 0 244 242 250 0 +0 0 0 1346145417358002e-30 0 1 .003 1 0 -134614541
7358002e-30 14 244 87 251 ?241 252 253 4 246 +0 0 241 252 22 50 250 154 0 252 24
6 254 0 +-164407960929524e-31 .0015 .018 1346145417358002e-30 0 1 1 0 -134614541
7358002e-30 14 252 92 255 ?244 256 257 4 250 +0 0 244 256 22 51 254 155 0 256 25
0 258 0 +0 0 0 1346145417358002e-30 0 1 .0015 1 0 -1346145417358002e-30 14 256 9
7 259 ?252 260 261 4 254 +0 0 252 260 22 50 258 156 0 260 254 262 0 +-2404326737
70385e-32 .00175 .0182 -1346145417358002e-30 0 -1 -1 0 1346145417358002e-30 14 2
60 102 263 ?256 264 265 4 258 +0 0 256 264 22 51 262 157 0 264 258 266 0 +0 0 0
 1346145417358002e-30 0 1 .00175 1 0 -1346145417358002e-30 14 264 107 267 ?260 2
68 269 4 262 +0 0 260 268 22 50 266 158 0 268 262 270 0 +-161636055417384e-31 75
e-5 .0191 1346145417358002e-30 0 1 1 0 -1346145417358002e-30 14 268 112 271 ?264
 272 273 4 266 +0 0 264 272 22 51 270 159 0 272 266 274 0 +0 0 0 134614541735800
2e-30 0 1 75e-5 1 0 -1346145417358002e-30 14 272 117 275 ?268 276 277 4 270 +0 0
 268 276 22 50 274 160 0 276 270 278 0 +-192417353980059e-31 0 .0251 13461454173
58002e-30 0 1 1 0 -1346145417358002e-30 14 276 122 279 ?272 280 281 4 274 +0 0 2
72 280 22 50 278 161 0 233 274 282 0 +-1092251289414038e-32 .00795 -670324195002
269e-32 -1346145417358002e-30 0 -1 -1 0 1346145417358002e-30 14 233 132 283 ?245
 227 284 4 278 +0 0 245 227 22 51 282 162 0 280 278 285 0 +0 0 0 134614541735800
2e-30 0 1 .00795 1 0 -1346145417358002e-30 14 280 137 286 ?276 287 288 4 282 +0
 0 276 287 22 52 285 163 0 287 282 289 0 +34326708142629e-31 0 .00255 1346145417
358002e-30 0 1 .0085 .707106781186549 .707106781186546 1 0 -1346145417358002e-30
 14 287 142 290 ?280 291 292 4 285 +0 0 280 291 22 51 289 164 0 291 285 293 0 +0
 0 0 1346145417358002e-30 0 1 .0085 1 0 -1346145417358002e-30 14 291 147 294 ?28
7 248 295 4 289 +0 0 287 248 22 50 293 165 0 248 289 296 0 +-178168883155799e-31
 .003 .017 1346145417358002e-30 0 1 1 0 -1346145417358002e-30 14 248 150 297 ?29
1 245 298 4 293 +0 0 291 245 22 50 296 565 0 299 293 300 0 +-.000850000000000018
 .0053 -.0042 -.957826285221151 638040477266223e-30 -.287347885566346 -.28734788
55663465 0 .957826285221151 14 299 553 301 ?302 303 304 4 296 +0 0 302 303 22 50
 300 586 0 302 296 18 0 +.000849999999999984 .0053 -.0042 .957826285221152 -3515
86887993576e-29 -.2873478855663445 -.2873478855663445 0 -.957826285221152 14 302
 574 305 ?306 299 307 4 300 +0 0 306 299 22 50 18 1223 0 308 300 5 0 +-.001 -.00
51 -.0037 -.957826285221151 -229523168398153e-29 -.2873478855663465 -.2873478855
663465 0 .957826285221151 14 308 1211 309 ?17 310 311 4 18 +0 0 17 310 22 81 1 3
09 2344 215 308 312 0 313 314 315 14 17 1232 314 ?316 308 317 4 5 +0 0 316 308 2
2 14 310 1056 313 ?308 318 319 4 320 +0 0 308 318 22 15 311 1212 0 321 308 0 17
 321 0 311 322 323 65 85 324 0 0 -17 322 0 311 82 321 77 67 325 0 0 -17 323 0 31
1 321 82 83 326 327 0 0 -17 85 0 328 178 329 83 321 324 0 330 +16 324 1180 0 ?85
 331 332 333 0 0 1 16 331 1187 0 ?334 24 324 335 0 0 1 16 332 1173 0 ?70 324 325
 336 0 0 1 30 333 1182 0 324 336 335 0 +-.001 -.0051 -.0037 -.2873478855663465 -
3463048643056805e-30 .957826285221151 30 336 1175 0 332 337 333 0 +.001 -.0051 -
.0037 -.287347885566344 152164258558557e-29 -.957826285221152 30 335 1189 0 331
 333 338 0 +.001 -.0051 -.0037 -684759266832951e-29 1 3816391647148955e-31 30 33
8 1749 0 1 335 339 340 +.00583545199620389 -.0051 -177635683940025e-32 -1 -28984
1367931338e-29 0 30 339 1750 0 1 338 341 342 +-.00583545199620387 .0051 -1776356
83940025e-32 1 0 0 141 255 340 343 344 344 338 133 255 343 1970 0 345 346 347 0
 +338 .00583545199618363 -.0051 -177635683940025e-32 .001 -.0051 -17763568394002
5e-32 202607028376711e-28 .00483545199620389 141 344 25 340 340 338 133 25 2018
 0 9 348 19 0 +338 -.001 -.0051 -177635683940025e-32 -.0058354519961836 -.0051 -
177635683940025e-32 .00683545199620389 .0116709039923875 30 348 2015 0 1 349 25
 350 +-.001000000000000012 .0051 -662874058458482e-32 0 1 222044604925032e-29 13
3 19 2019 0 351 25 6 0 +6 -.001 -.0051 -198993751758074e-31 -.001 -.0053 -199757
030087504e-31 0 2e-4 16 351 1024 0 ?352 353 354 19 0 0 1 17 352 0 284 355 151 86
 356 351 0 0 +16 353 1130 0 ?357 358 351 359 0 0 1 16 354 1016 0 ?360 351 361 34
1 0 0 1 17 360 0 284 52 355 152 362 354 0 363 +16 361 1012 0 ?355 354 364 365 0
 0 1 133 341 2002 0 354 339 366 0 +366 .001 -.0053 -173389233252656e-31 .001 -.0
051 -1726259549232265e-32 0 2e-4 30 366 2003 0 1 341 367 368 +.001 -.0053 -17338
9233252656e-31 -684759266832951e-29 1 3816391647148955e-31 133 367 2006 0 24 366
 369 0 +339 .000999999999999988 .0051 -177635683940025e-32 .00583545199620387 .0
051 -177635683940025e-32 .00683545199620386 .01167090399240774 141 368 341 368 3
68 366 16 24 1738 0 ?370 9 331 367 0 0 1 133 369 2007 0 371 367 372 0 +372 .0009
99999999999989 .0053 -354787169125001e-32 .000999999999999988 .0051 -39919609011
00075e-33 0 2e-4 16 371 338 0 ?30 373 374 369 0 0 1 30 372 2008 0 1 369 349 375
 +.000999999999999989 .0053 -354787169125001e-32 -4336808689942025e-30 -1 -22204
46049250315e-30 133 349 2014 0 373 372 348 0 +348 -.001000000000000012 .0051 -66
2874058458482e-32 -.001000000000000012 .0053 -618465137473476e-32 0 2e-4 141 375
 369 375 375 372 16 373 350 0 ?376 377 371 349 0 0 1 17 376 0 378 379 124 119 38
0 373 0 0 +16 377 453 0 ?381 382 373 383 0 0 1 17 381 0 384 385 386 113 387 377
 0 388 +16 382 459 0 ?389 390 377 391 0 0 1 30 383 418 0 377 392 391 0 +-.001000
00000000002 .0053 -.0042 1 -867361737988403e-30 1318389841742372e-30 30 392 825
 0 393 394 383 0 +-.0004499999999999945 -.00988 -.0032 -137390099297363e-29 1 -6
19544098563145e-31 30 391 416 0 382 383 395 0 +.000999999999999982 .0051 -.0042
 -1 867361737988403e-30 -1318389841742372e-30 30 395 414 0 374 391 396 0 +-.0010
00000000000012 .0053 -618465137473476e-32 1 -867361737988403e-30 131838984174237
2e-30 16 374 332 0 ?397 371 398 395 0 0 1 30 396 410 0 399 395 400 401 +-.001000
00000000002 .0051 -.0042 1346145417358002e-30 0 1 16 399 497 0 ?40 402 390 396 0
 0 1 30 400 409 0 402 396 403 404 +.000999999999999982 .0051 -.0042 134614541735
8002e-30 0 1 141 401 405 401 401 396 133 405 1962 0 406 407 408 0 +396 -.0010000
00000000014 .0051 -.001 -.001000000000000012 .0051 -662874058458482e-32 .0032 .0
042 16 406 1825 0 ?124 409 32 405 0 0 1 133 407 1963 0 32 410 405 0 +400 .000999
999999999986 .0051 -.001 .000999999999999988 .0051 -3991960901100075e-33 .0032 .
0042 31 255 408 1544 0 411 405 412 0 +506721857456379e-32 -.0053 -.0032 -2510783
97838748e-29 1 260208521396521e-29 -1 -251078397838748e-29 -1836970198721065e-31
 45e-5 16 411 1483 0 ?413 414 415 408 0 0 1 30 412 1543 0 414 408 416 0 +45e-5 -
.0053 -.00195 -177809156287623e-29 2602085213965205e-30 -1 16 414 1463 0 ?417 41
8 411 412 0 0 1 31 416 1542 0 418 412 419 0 +723562291953481e-32 -.0053 -.00195
 -251078397838748e-29 1 260208521396521e-29 -1 -251078397838748e-29 -18369701987
21065e-31 45e-5 16 418 1453 0 ?420 364 414 416 0 0 1 30 419 1541 0 364 416 421 0
 +-45e-5 -.0053 -.0032 177809156287623e-29 -2602085213965205e-30 1 16 364 1473 0
 ?422 361 418 419 0 0 1 30 421 1540 0 423 419 424 0 +-45e-5 -.0051 -.0032 -17780
9156287623e-29 2602085213965205e-30 -1 16 423 1467 0 ?425 426 427 421 0 0 1 31 4
24 1539 0 427 421 428 0 -700824632245204e-32 -.0051 -.00195 -3378145716375885e-3
0 1 260208521396521e-29 -1 -3378145716375885e-30 -55235860863902e-43 45e-5 16 42
7 1447 0 ?429 423 430 424 0 0 1 30 428 1538 0 430 424 431 0 +45e-5 -.0051 -.0019
5 177809156287623e-29 -2602085213965205e-30 1 16 430 1457 0 ?432 427 409 428 0 0
 1 31 431 1537 0 409 428 433 0 -483984197748102e-32 -.0051 -.0032 -3378145716375
885e-30 1 260208521396521e-29 -1 -3378145716375885e-30 -55235860863902e-43 45e-5
 16 409 1477 0 ?434 430 406 431 0 0 1 30 433 1536 0 426 431 435 0 +-.00045000000
0000017 .00988 -.00195 113688298541385e-29 -1 -2664039623821525e-30 16 426 1451
 0 ?436 437 423 433 0 0 1 30 435 1535 0 437 433 438 0 +.00044999999999999 .00988
 -.00195 113688298541385e-29 -1 -2664039623821525e-30 16 437 1461 0 ?58 439 426
 435 0 0 1 30 438 1534 0 439 435 440 0 +.0004499999999999805 .00988 -.0032 11368
8298541385e-29 -1 -2664039623821525e-30 16 439 1481 0 ?441 415 437 438 0 0 1 30
 440 1533 0 415 438 359 0 +-.00045000000000002 .00988 -.0032 113688298541385e-29
 -1 -2664039623821525e-30 16 415 1471 0 ?442 411 439 440 0 0 1 30 359 1082 0 353
 440 443 0 +-.001 -.0053 -.0042 1 337814571637588e-29 1318389841742376e-30 30 44
3 1080 0 358 359 365 0 +.001 -.0051 -.0042 -1 -337814571637588e-29 -131838984174
2378e-30 16 358 1154 0 ?329 444 353 443 0 0 1 30 365 1078 0 361 443 445 0 +-.001
 -.0053 -199757030087504e-31 1 337814571637588e-29 1318389841742376e-30 30 445 1
074 0 446 365 447 448 +-.001 -.0051 -.0042 1346145417358006e-30 -260208521396520
5e-30 1 16 446 1116 0 ?178 449 444 445 0 0 1 30 447 1073 0 449 445 450 451 +.001
 -.0051 -.0042 1346145417358006e-30 -2602085213965205e-30 1 141 448 452 448 448
 445 133 452 1967 0 453 347 410 0 +445 -.001 -.0051 -.001 -.001 -.0051 -19899375
1758074e-31 .0032 .0042 16 453 1839 0 ?454 32 455 452 0 0 1 133 347 1968 0 455 3
43 452 0 +447 .001 -.0051 -.001 .001 -.0051 -1726259549232265e-32 .0032 .0042 13
3 410 1965 0 456 452 407 0 +339 -.00583545199621089 .0051 -177635683940025e-32 -
.001000000000000012 .0051 -177635683940025e-32 -701955854554015e-29 .00483545199
620386 16 456 1861 0 ?457 458 459 410 0 0 1 17 457 0 460 461 462 122 49 456 0 0
 +16 458 1865 0 ?463 345 456 464 0 0 1 16 459 1853 0 ?465 456 466 467 0 0 1 17 4
65 0 468 469 470 47 46 459 0 0 +16 466 2073 0 ?471 459 472 473 0 0 1 31 467 1977
 0 459 474 464 0 +0 0 -177635683940025e-32 0 0 -1 -1 0 0 .00775 30 474 1978 0 47
5 476 467 0 +.00583545199620389 -.0051 -.001 -1 -289841367931338e-29 0 31 464 19
76 0 458 467 477 0 +0 0 -177635683940025e-32 0 0 -1 -1 0 0 .00775 30 477 1975 0
 478 464 479 0 +.00583545199618363 -.00510000000002319 -.001 0 0 1 16 478 1871 0
 ?480 481 482 477 0 0 1 30 479 1974 0 481 477 483 0 +.00583545199620387 .0051 -.
001 0 0 1 16 481 1869 0 ?484 485 478 479 0 0 1 30 483 1973 0 485 479 346 0 +-.00
583545199621089 .00509999999999199 -.001 0 0 1 16 485 1859 0 ?462 455 481 483 0
 0 1 30 346 1972 0 482 483 343 0 +-.0058354519961836 -.00510000000002322 -.001 0
 0 1 16 482 1857 0 ?470 478 475 346 0 0 1 17 470 0 468 465 486 42 487 482 0 0 +1
6 475 1889 0 ?488 482 489 474 490 489 1 17 488 0 491 492 181 35 493 475 0 0 +16
 489 1891 0 ?492 475 490 474 475 490 1 16 490 1895 0 ?190 489 494 474 489 475 1
 17 190 0 491 495 492 188 496 490 0 487 +16 494 1887 0 ?181 490 497 476 0 0 1 17
 181 0 491 488 184 179 498 494 0 499 +16 497 1879 0 ?500 494 39 501 502 39 1 31
 476 1979 0 494 501 474 0 +0 0 -.001 0 0 -1 -1 0 0 .00775 30 501 1980 0 497 503
 476 0 +-.00583545199620387 .0051 -.001 1 0 0 31 503 1981 0 504 505 501 0 +0 0 -
.001 0 0 -1 -1 0 0 .00775 16 504 1877 0 ?495 502 345 503 0 0 1 31 505 2095 0 472
 473 503 0 +22884472095086e-30 .005 .017 -1346145417358e-27 0 -1 -1 0 1346145417
358e-27 625e-6 16 472 2074 0 ?506 466 507 505 0 0 1 31 473 2096 0 466 508 505 0
 +19519108551691e-30 .005 .0145 -1346145417358e-27 0 -1 -1 0 1346145417358e-27 6
25e-6 31 508 2138 0 509 510 473 0 +-.00433012701892218 .0025 .017 -7267268014910
42e-30 -119677333354819e-29 -1 -.5 -.866025403784439 1399799510170042e-30 625e-6
 16 509 2120 0 ?511 507 512 508 0 0 1 31 510 2139 0 507 513 508 0 +-.00433012701
8922185 .0025 .0145 -726726801491042e-30 -119677333354819e-29 -1 -.5 -.866025403
784439 1399799510170042e-30 625e-6 16 507 2119 0 ?514 472 509 510 0 0 1 31 513 2
171 0 515 516 510 0 +-.004330127018922205 -.002499999999999975 .017 619418615866
958e-30 -1258727743404506e-30 -1 .5 -.866025403784439 1399799510170042e-30 625e-
6 16 515 2153 0 ?517 512 518 513 0 0 1 31 516 2172 0 512 519 513 0 +-.0043301270
18922205 -.0025 .0145 619418615866958e-30 -1258727743404506e-30 -1 .5 -.86602540
3784439 1399799510170042e-30 625e-6 16 512 2152 0 ?520 509 515 516 0 0 1 31 519
 2204 0 521 522 516 0 +-2482736238818005e-32 -.005 .017 1346145417358e-27 -12390
88197126294e-31 -1 1 -3885780586188045e-31 1346145417358e-27 625e-6 16 521 2186
 0 ?523 518 524 519 0 0 1 31 522 2205 0 518 525 519 0 +-2146199884478505e-32 -.0
05 .0145 1346145417358e-27 -1239088197126294e-31 -1 1 -3885780586188045e-31 1346
145417358e-27 625e-6 16 518 2185 0 ?526 515 521 522 0 0 1 31 525 2237 0 527 528
 522 0 +.00433012701892218 -.0025 .017 726726801491042e-30 1072864513835562e-30
 -1 .5 .866025403784438 129249132454596e-29 625e-6 16 527 2219 0 ?529 524 530 52
5 0 0 1 31 528 2238 0 524 531 525 0 +.00433012701892218 -.0025 .0145 72672680149
1042e-30 1072864513835562e-30 -1 .5 .866025403784438 129249132454596e-29 625e-6
 16 524 2218 0 ?532 521 527 528 0 0 1 31 531 2270 0 533 534 528 0 +.004330127018
922205 .0025 .017 -619418615866958e-30 1134818923691876e-30 -1 -.5 .866025403784
439 129249132454596e-29 625e-6 16 533 2252 0 ?535 530 0 531 0 0 1 31 534 2271 0
 530 0 531 0 +.004330127018922205 .0025 .0145 -619418615866958e-30 1134818923691
876e-30 -1 -.5 .866025403784439 129249132454596e-29 625e-6 16 530 2251 0 ?536 52
7 533 534 0 0 1 17 536 0 220 536 536 0 225 530 0 0 +15 220 2263 0 536 211 537 17
 225 0 213 225 225 0 536 530 0 0 -15 537 2264 0 538 211 0 17 538 0 537 538 538 0
 535 533 0 0 -17 535 0 298 535 535 0 538 533 0 0 +15 298 2243 0 535 248 539 15 5
39 2210 0 529 248 540 17 529 0 539 529 529 0 541 527 0 0 +15 540 2177 0 523 248
 542 17 523 0 540 523 523 0 543 521 0 0 +15 542 2144 0 517 248 544 17 517 0 542
 517 517 0 545 515 0 0 +15 544 2111 0 511 248 546 17 511 0 544 511 511 0 547 509
 0 0 +15 546 2064 0 506 248 548 17 506 0 546 506 506 0 549 472 0 0 +15 548 254 0
 550 248 551 17 550 0 548 550 550 0 552 553 0 0 +15 551 149 0 554 248 0 17 554 0
 551 554 554 0 555 556 0 0 -17 555 0 253 555 555 0 554 556 0 0 +16 556 82 0 ?555
 557 558 559 0 0 1 16 557 84 0 ?560 561 556 562 0 0 1 16 558 475 0 ?127 556 402
 403 0 0 1 31 559 166 0 556 563 562 0 +2288447209508605e-32 0 .017 1346145417358
002e-30 0 1 1 0 -1346145417358002e-30 .003 30 563 407 0 390 403 559 0 +-.0010000
0000000002 .0053 -.0042 1346145417358002e-30 0 1 31 562 167 0 557 559 564 0 +242
3061751244405e-32 0 .018 1346145417358002e-30 0 1 1 0 -1346145417358002e-30 .003
 31 564 168 0 561 562 565 0 +2423061751244405e-32 0 .018 1346145417358002e-30 0
 1 1 0 -1346145417358002e-30 .0015 16 561 89 0 ?566 567 557 564 0 0 1 31 565 169
 0 567 564 568 0 +2449984659591565e-32 0 .0182 1346145417358002e-30 0 1 1 0 -134
6145417358002e-30 .0015 16 567 94 0 ?569 570 561 565 0 0 1 31 568 170 0 570 565
 571 0 +2449984659591565e-32 0 .0182 1346145417358002e-30 0 1 1 0 -1346145417358
002e-30 .00175 16 570 99 0 ?572 573 567 568 0 0 1 31 571 171 0 573 568 574 0 +25
71137747153785e-32 0 .0191 1346145417358002e-30 0 1 1 0 -1346145417358002e-30 .0
0175 16 573 104 0 ?575 576 570 571 0 0 1 31 574 172 0 576 571 577 0 +25711377471
53785e-32 0 .0191 1346145417358002e-30 0 1 1 0 -1346145417358002e-30 75e-5 16 57
6 109 0 ?578 579 573 574 0 0 1 31 577 173 0 579 574 580 0 +3378824997568585e-32
 0 .0251 1346145417358002e-30 0 1 1 0 -1346145417358002e-30 75e-5 16 579 114 0 ?
581 582 576 577 0 0 1 31 580 174 0 582 577 583 0 +-896712982106717e-48 0 -666133
814775109e-33 1346145417358002e-30 0 1 1 0 -1346145417358002e-30 .00795 16 582 1
29 0 ?584 585 579 580 0 0 1 31 583 175 0 585 580 586 0 +2692290834716005e-33 0 .
002 1346145417358002e-30 0 1 1 0 -1346145417358002e-30 .00795 16 585 134 0 ?587
 588 582 583 0 0 1 31 586 176 0 588 583 589 0 +34326708142629e-31 0 .00255 13461
45417358002e-30 0 1 1 0 -1346145417358002e-30 .0085 16 588 139 0 ?590 553 585 58
6 0 0 1 31 589 177 0 553 586 591 0 +2288447209508605e-32 0 .017 1346145417358002
e-30 0 1 1 0 -1346145417358002e-30 .0085 16 553 144 0 ?550 592 588 589 0 0 1 30
 591 466 0 592 589 593 0 +.000849999999999983 .0051 -.0042 -4336808689942025e-30
 -1 -2220446049250315e-30 16 592 464 0 ?385 594 553 591 0 0 1 30 593 471 0 594 5
91 595 0 +-.000850000000000018 .0053 -.0042 -1261168617892336e-59 1 222044604925
031e-29 16 594 469 0 ?386 596 592 593 0 0 1 30 595 484 0 596 593 597 0 +.0008499
99999999984 .0053 -.0042 -.2873478855663445 249234561432116e-30 -.95782628522115
2 16 596 482 0 ?115 598 594 595 0 0 1 30 597 491 0 598 595 599 0 +-.000850000000
000018 .0053 -.0042 -.2873478855663465 24923456143212e-29 .957826285221151 16 59
8 489 0 ?103 600 596 597 0 0 1 30 599 502 0 600 597 601 0 +-.001000000000000018
 .0051 -.0037 1261168617892336e-59 -1 -222044604925031e-29 16 600 500 0 ?100 602
 598 599 0 0 1 30 601 513 0 602 599 603 0 +.000849999999999984 .0051 -.0042 .287
3478855663445 -249234561432116e-30 .957826285221152 16 602 511 0 ?97 604 600 601
 0 0 1 30 603 520 0 604 601 605 0 +-.000850000000000018 .0051 -.0042 .2873478855
663465 -24923456143212e-29 -.957826285221151 16 604 518 0 ?109 606 602 603 0 0 1
 30 605 527 0 606 603 607 0 +.000999999999999984 .0053 -.0037 4336808689942025e-
30 1 2220446049250315e-30 16 606 525 0 ?106 327 604 605 0 0 1 30 607 1124 0 327
 605 608 0 +-.001 -.0053 -.0037 251078397838748e-29 -1 -381639164714901e-30 16 3
27 1122 0 ?326 609 606 607 0 0 1 30 608 1141 0 609 607 610 0 +.001 -.0053 -.0037
 .287347885566344 -152164258558557e-29 .957826285221152 16 609 1139 0 ?73 611 32
7 608 0 0 1 30 610 1148 0 611 608 612 0 +-.001 -.0053 -.0037 .2873478855663465 3
463048643056805e-30 -.957826285221151 16 611 1146 0 ?79 613 609 610 0 0 1 30 612
 1161 0 613 610 337 0 +85e-5 -.0053 -.0042 684759266832951e-29 -1 -3816391647148
955e-31 16 613 1159 0 ?76 325 611 612 0 0 1 30 337 1166 0 325 612 336 0 +-85e-5
 -.0051 -.0042 -251078397838748e-29 1 381639164714901e-30 16 325 1164 0 ?67 332
 613 337 0 0 1 17 67 0 319 614 615 65 322 325 0 329 +15 319 1060 0 615 310 0 17
 614 0 319 76 67 68 329 358 0 616 -17 615 0 319 67 76 77 357 353 0 322 -17 329 0
 328 85 70 65 614 358 0 321 +15 328 1772 0 41 227 0 17 70 0 328 329 617 68 64 33
2 0 614 +17 617 0 328 70 41 62 618 449 0 0 -17 64 0 317 619 616 62 70 332 0 334
 -15 317 1233 0 620 17 0 17 619 0 317 620 64 71 334 331 0 0 -17 616 0 317 64 620
 68 76 613 0 0 -17 334 0 621 618 622 62 619 331 0 617 +15 621 1045 0 622 623 0 1
7 618 0 621 154 334 35 617 449 0 624 +17 622 0 621 334 362 71 157 625 0 619 -17
 362 0 621 622 154 155 360 354 0 355 -17 157 0 626 627 73 155 622 625 0 362 +16
 625 1136 0 ?157 628 449 450 0 0 1 16 628 747 0 ?94 629 625 630 0 0 1 16 449 117
0 0 ?618 625 446 447 0 0 1 30 450 1072 0 625 447 631 0 +.001 -.0053 -.0042 13461
45417358006e-30 -2602085213965205e-30 1 30 631 1071 0 444 450 632 0 +-.001 -.005
3 -.0042 1346145417358006e-30 -2602085213965205e-30 1 16 444 1120 0 ?88 446 358
 631 0 0 1 31 632 836 0 633 631 634 0 +-823993651088983e-32 .0053 -.0032 0 1 0 -
1 0 -183697019872103e-30 45e-5 16 633 775 0 ?635 636 393 632 0 0 1 30 634 835 0
 636 632 637 0 +.0004499999999999865 .0053 -.00195 -1778091562876225e-30 0 -1 16
 636 771 0 ?91 638 633 634 0 0 1 31 637 834 0 638 634 639 0 +-607153216591882e-3
2 .0053 -.00195 0 1 0 -1 0 -183697019872103e-30 45e-5 16 638 767 0 ?640 398 636
 637 0 0 1 30 639 833 0 398 637 641 0 +-.000450000000000016 .0053 -.0032 1778091
56287623e-29 0 1 16 398 763 0 ?642 374 638 639 0 0 1 30 641 832 0 643 639 644 0
 +-.000450000000000015 .0051 -.0032 -177809156287623e-29 37465355949408e-44 -1 1
6 643 743 0 ?645 646 647 641 0 0 1 31 644 831 0 647 641 648 0 --57967519673241e-
31 .0051 -.00195 867361737988403e-30 1 -116759502878476e-44 -1 867361737988403e-
30 0 45e-5 16 647 739 0 ?649 643 629 644 0 0 1 30 648 830 0 629 644 630 0 +.0004
49999999999987 .0051 -.00195 1778091562876225e-30 -3746535594940795e-46 1 16 629
 751 0 ?650 647 628 648 0 0 1 31 630 829 0 628 648 651 0 --796515631229511e-32 .
0051 -.0032 867361737988403e-30 1 -116759502878476e-44 -1 867361737988403e-30 0
 45e-5 30 651 828 0 646 630 652 0 +-.0004499999999999925 -.00988 -.00195 -137390
099297363e-29 1 -619544098563145e-31 16 646 759 0 ?136 653 643 651 0 0 1 30 652
 827 0 653 651 394 0 +.000450000000000015 -.00988 -.00195 -137390099297363e-29 1
 -619544098563145e-31 16 653 755 0 ?139 654 646 652 0 0 1 30 394 826 0 654 652 3
92 0 +45e-5 -.00988 -.0032 -137390099297363e-29 1 -619544098563145e-31 16 654 75
7 0 ?655 393 653 394 0 0 1 17 655 0 656 635 94 89 657 654 0 658 +16 393 761 0 ?1
33 633 654 392 0 0 1 17 133 0 659 642 645 131 148 393 0 635 +15 659 806 0 645 66
0 0 17 642 0 659 142 133 134 661 398 0 662 +17 645 0 659 133 142 146 663 643 0 6
64 +17 148 0 656 94 635 146 133 393 0 645 -17 635 0 656 148 655 131 658 633 0 66
1 +15 656 811 0 94 665 0 17 658 0 666 667 661 89 635 633 0 0 -17 661 0 666 658 6
62 131 642 398 0 0 -15 666 715 0 661 245 0 17 662 0 666 661 667 134 640 638 0 0
 -17 667 0 666 662 658 137 91 636 0 0 -17 640 0 668 145 136 137 662 638 0 667 +1
5 668 796 0 649 306 0 17 145 0 668 649 640 143 139 653 0 650 -17 136 0 668 640 6
49 134 142 646 0 642 +17 649 0 668 136 145 140 236 647 0 663 +17 142 0 659 645 6
42 140 136 646 0 649 -17 236 0 228 669 663 143 649 647 0 0 -17 663 0 228 236 664
 140 645 643 0 0 -17 664 0 228 663 669 146 94 628 0 0 -17 669 0 228 664 236 92 6
50 629 0 0 -17 94 0 656 655 148 92 664 628 0 657 +17 657 0 670 650 91 92 655 654
 0 669 -15 670 801 0 650 671 0 17 650 0 670 139 657 143 669 629 0 236 +17 91 0 6
70 657 139 89 667 636 0 655 +17 139 0 670 91 650 137 145 653 0 640 +14 671 797 6
72 ?660 306 670 4 673 -0 0 660 306 22 81 1 672 2330 215 671 674 0 675 676 677 14
 660 802 676 ?665 671 659 4 678 -0 0 665 671 22 14 306 792 675 ?671 302 668 4 67
9 -0 0 671 302 22 50 673 820 0 671 679 680 0 +.000450000000000008 -.00988 -.0019
5 1 137390099297363e-29 -1778091562876225e-30 -1778091562876225e-30 0 -1 51 679
 821 0 306 678 673 0 +147842849074209e-31 -.00988 -.00195 -137390099297363e-29 1
 -619544098563145e-31 45e-5 -1 -137390099297363e-29 0 51 680 819 0 665 673 240 0
 +1261588056244988e-32 -.00988 -.0032 -137390099297363e-29 1 -619544098563145e-3
1 45e-5 -1 -137390099297363e-29 0 14 665 807 681 ?682 660 656 4 680 -0 0 682 660
 22 50 240 406 0 303 680 237 0 +.000999999999999983 .0053 -.0042 131838984174237
4e-30 222044604925031e-29 -1 0 1 222044604925031e-29 14 303 392 683 ?299 239 384
 4 240 +0 0 299 239 22 81 1 683 2322 215 303 684 0 685 301 686 14 239 387 685 ?3
03 241 378 4 237 -0 0 303 241 22 15 384 396 0 389 303 0 17 389 0 384 386 385 107
 687 382 0 688 +17 386 0 384 381 389 116 688 594 0 387 +17 385 0 384 389 381 110
 388 592 0 687 +17 687 0 36 97 109 110 389 382 0 0 -17 688 0 304 689 118 107 386
 594 0 0 -15 304 554 0 689 299 0 17 689 0 304 690 688 98 109 604 0 0 -17 118 0 3
04 688 690 116 103 598 0 386 -17 690 0 304 118 689 101 100 600 0 0 -17 103 0 249
 121 387 101 118 598 0 379 +15 249 376 0 387 245 666 17 121 0 249 397 103 119 37
9 390 0 691 +17 387 0 249 103 115 116 381 377 0 0 -17 379 0 378 100 376 101 121
 390 0 690 -15 378 391 0 379 239 0 17 100 0 378 40 379 98 690 600 0 37 +16 390 4
79 0 ?121 399 382 563 0 0 1 17 40 0 378 124 100 27 37 399 0 461 +17 37 0 36 109
 34 98 40 399 0 689 -15 36 1780 0 34 15 0 17 109 0 36 687 37 107 689 604 0 389 +
17 124 0 378 376 40 122 461 406 0 380 +17 461 0 460 187 457 27 124 406 0 500 -15
 460 1936 0 461 692 0 17 187 0 460 462 461 185 500 497 0 495 -17 500 0 491 38 49
5 27 187 497 0 0 +15 491 1951 0 495 693 0 17 38 0 491 184 500 10 34 39 0 0 +17 4
95 0 491 500 190 185 486 504 0 469 +17 486 0 468 470 469 188 495 504 0 0 -17 469
 0 468 486 465 185 462 485 0 0 -15 468 1931 0 465 694 0 17 462 0 460 457 187 47
 469 485 0 465 +14 694 1927 695 ?692 696 468 4 697 -0 0 692 696 22 81 1 695 2360
 215 694 698 0 699 700 701 14 692 1932 700 ?702 694 460 4 703 -704 704 702 694 2
2 14 696 1920 699 ?694 704 705 4 706 -707 707 694 704 22 51 697 1956 0 694 703 7
08 0 -0 0 -.001 0 0 1 .00775 1 0 0 50 703 1957 0 692 709 697 0 +-.00583545199620
387 .0051 -.001 0 -1 0 0 0 -1 50 708 1530 0 710 697 711 0 +-.00045000000000002 .
00988 -.0032 -1 -1136882985413854e-30 177809156287623e-29 177809156287623e-29 -2
602085213965205e-30 1 14 710 1510 712 ?713 714 715 4 708 -0 0 713 714 22 51 711
 1529 0 316 708 716 0 +-1002226079904742e-32 .00988 -.00195 113688298541385e-29
 -1 -2664039623821525e-30 45e-5 -1 -113688298541385e-29 308370526457402e-45 14 3
16 1500 717 ?714 17 718 4 711 -0 0 714 17 22 50 716 1528 0 714 711 719 0 +.00044
99999999999825 .00988 -.00195 1 1136882985413854e-30 -1778091562876225e-30 -1778
09156287623e-29 2602085213965205e-30 -1 14 714 1505 720 ?710 316 721 4 716 -0 0
 710 316 22 51 719 1527 0 713 716 320 0 +-1219066514401844e-32 .00988 -.0032 113
688298541385e-29 -1 -2664039623821525e-30 45e-5 -1 -113688298541385e-29 30837052
6457402e-45 14 713 1515 722 ?704 710 723 4 719 -0 0 704 710 22 50 320 1070 0 310
 719 724 0 +.001 -.0053 -.0042 1318389841742376e-30 3816391647149045e-31 -1 2510
78397838748e-29 -1 -381639164714901e-30 50 724 1068 0 318 320 235 0 +-.001 -.005
1 -.0042 1 251078397838748e-29 -1346145417358e-27 -1346145417358006e-30 26020852
13965205e-30 -1 14 318 1051 725 ?310 623 726 4 724 -0 0 310 623 22 50 235 1067 0
 227 724 727 0 +.001 -.0051 -.0042 3378145716375885e-30 -1 -260208521396521e-29
 -1 -3378145716375885e-30 -55235860863902e-43 50 727 1066 0 623 235 728 0 +.001
 -.0053 -.0042 -1 -684759266832951e-29 1346145417357988e-30 -68475926683295e-28
 1 260208521396521e-29 14 623 1041 729 ?318 682 621 4 727 -0 0 318 682 22 50 728
 1065 0 682 727 678 0 +-.001 -.0053 -.0042 -3378145716375885e-30 1 2602085213965
21e-29 1 3378145716375885e-30 552358608639019e-44 14 682 1036 730 ?623 665 731 4
 728 -0 0 623 665 22 50 678 822 0 660 728 679 0 +-.0004499999999999945 -.00988 -
.0032 -1 -137390099297363e-29 1778091562876225e-30 177809156287623e-29 0 1 81 1
 730 2336 215 682 732 0 681 729 733 15 731 1414 0 413 682 626 17 413 0 731 422 4
17 158 166 411 0 0 +15 626 1040 0 734 682 0 17 734 0 626 79 627 80 88 444 0 0 -1
7 79 0 626 357 734 77 82 611 0 615 +17 627 0 626 734 157 86 355 361 0 352 -17 88
 0 726 356 326 86 734 444 0 627 +15 726 1055 0 330 318 0 17 356 0 726 735 88 149
 352 351 0 454 -17 326 0 726 88 330 80 323 327 0 734 +17 330 0 726 326 735 83 17
8 446 0 323 -17 735 0 726 330 356 176 454 453 0 496 -17 178 0 328 41 85 176 330
 446 0 735 +17 41 0 328 617 178 35 492 489 0 618 -17 492 0 491 190 488 176 41 48
9 0 0 +17 454 0 705 23 496 149 735 453 0 0 +17 496 0 705 454 487 176 190 490 0 4
92 -15 705 1924 0 496 696 0 17 487 0 705 496 23 188 470 482 0 486 -17 23 0 705 4
87 454 42 151 9 0 470 +17 151 0 284 352 46 149 23 9 0 356 -15 284 1744 0 151 233
 736 17 46 0 284 151 49 42 465 459 0 23 -17 49 0 284 46 380 47 457 456 0 462 -17
 380 0 284 49 691 122 376 373 0 457 -17 691 0 284 380 737 119 397 374 0 376 -17
 737 0 284 691 130 125 30 371 0 397 -17 397 0 249 738 121 125 691 374 0 0 +17 73
8 0 249 115 397 104 127 558 0 739 -17 115 0 249 387 738 113 739 596 0 381 +17 12
7 0 28 30 106 125 738 558 0 737 +17 739 0 307 740 388 104 115 596 0 0 -15 307 57
5 0 739 302 0 17 740 0 307 112 739 95 106 606 0 0 -17 388 0 307 739 112 113 385
 592 0 0 -17 112 0 307 388 740 110 97 602 0 385 -17 97 0 36 33 687 95 112 602 0
 29 +17 33 0 36 34 97 10 29 402 0 741 +17 29 0 28 106 26 95 33 402 0 740 -15 28
 381 0 29 241 0 17 106 0 28 127 29 104 740 606 0 738 +16 402 508 0 ?33 558 399 4
00 0 0 1 17 741 0 742 31 743 10 184 502 0 38 -15 742 1919 0 741 704 0 17 31 0 74
2 370 741 128 26 32 0 0 +17 743 0 742 741 370 182 484 481 0 498 -17 184 0 491 18
1 38 182 741 502 0 743 +16 502 1885 0 ?184 39 504 501 39 497 1 16 39 1881 0 ?38
 497 502 501 497 502 1 17 370 0 742 743 31 53 130 24 0 484 +17 484 0 744 463 498
 53 743 481 0 0 +17 498 0 744 484 499 182 181 494 0 0 -15 744 1941 0 463 702 0 1
7 499 0 744 498 463 179 480 478 0 493 -17 463 0 744 499 484 50 55 458 0 480 +17
 480 0 745 363 493 50 499 478 0 0 +17 493 0 745 480 624 179 488 475 0 0 -15 745
 1946 0 624 707 0 17 624 0 745 493 363 35 154 455 0 488 -17 363 0 745 624 480 15
2 52 345 0 0 +17 154 0 621 362 618 152 624 455 0 360 +16 455 1846 0 ?154 453 485
 347 0 0 1 17 52 0 284 55 360 50 363 345 0 463 -16 345 1873 0 ?363 504 458 343 0
 0 1 17 55 0 284 130 52 53 463 458 0 370 -17 130 0 284 737 55 128 370 24 0 30 -1
7 30 0 28 26 127 128 737 371 0 31 +14 707 1942 746 ?693 702 745 4 706 -696 696 6
93 702 22 81 1 746 2366 215 707 747 0 748 749 750 14 693 1947 749 ?751 707 491 4
 752 +0 0 751 707 22 14 702 1937 748 ?707 692 744 4 709 -0 0 707 692 22 50 706 1
959 0 707 752 709 0 +.00583545199620389 -.0051 -.001 -289841367931338e-29 1 0 -1
 -289841367931338e-29 0 50 752 1961 0 693 753 706 0 +0 0 -.001 0 0 -1 -1 0 0 51
 709 1958 0 702 706 703 0 -0 0 -.001 0 0 1 .00775 1 0 0 51 753 2092 0 754 755 75
2 0 +22884472095086e-30 .005 .017 -1346145417358e-27 0 -1 625e-6 -1 0 1346145417
358e-27 14 754 2085 756 ?757 751 758 4 753 -0 0 757 751 22 52 755 2094 0 751 759
 753 0 +19519108551691e-30 .005 .0145 1346145417358e-27 0 1 625e-6 .857167300702
112 .515038074910054 1 0 -1346145417358e-27 14 751 2076 760 ?754 693 761 4 755 -
0 0 754 693 22 51 759 2135 0 762 763 755 0 +-.00433012701892218 .0025 .017 -7267
26801491042e-30 -119677333354819e-29 -1 625e-6 -.5 -.866025403784439 13997995101
70042e-30 14 762 2129 764 ?765 757 766 4 759 -0 0 765 757 22 52 763 2137 0 757 7
67 759 0 +-.004330127018922185 .0025 .0145 726726801491042e-30 119677333354819e-
29 1 625e-6 .857167300702112 .515038074910054 .5 .866025403784439 -1399799510170
042e-30 14 757 2122 768 ?762 754 769 4 763 -0 0 762 754 22 51 767 2168 0 770 771
 763 0 +-.004330127018922205 -.002499999999999975 .017 619418615866958e-30 -1258
727743404506e-30 -1 625e-6 .5 -.866025403784439 1399799510170042e-30 14 770 2162
 772 ?773 765 774 4 767 -0 0 773 765 22 52 771 2170 0 765 775 767 0 +-.004330127
018922205 -.0025 .0145 -619418615866958e-30 1258727743404506e-30 1 625e-6 .85716
7300702112 .515038074910054 -.5 .866025403784439 -1399799510170042e-30 14 765 21
55 776 ?770 762 777 4 771 -0 0 770 762 22 51 775 2201 0 778 779 771 0 +-24827362
38818005e-32 -.005 .017 1346145417358e-27 -1239088197126294e-31 -1 625e-6 1 -388
5780586188045e-31 1346145417358e-27 14 778 2195 780 ?222 773 781 4 775 -0 0 222
 773 22 52 779 2203 0 773 224 775 0 +-2146199884478505e-32 -.005 .0145 -13461454
17358e-27 1239088197126294e-31 1 625e-6 .857167300702112 .515038074910054 -1 388
5780586188045e-31 -1346145417358e-27 14 773 2188 782 ?778 770 783 4 779 -0 0 778
 770 22 51 224 2234 0 212 784 779 0 +.00433012701892218 -.0025 .017 726726801491
042e-30 1072864513835562e-30 -1 625e-6 .5 .866025403784438 129249132454596e-29 5
2 784 2236 0 222 221 224 0 +.00433012701892218 -.0025 .0145 -726726801491042e-30
 -1072864513835562e-30 1 625e-6 .857167300702112 .515038074910054 -.5 -.86602540
3784438 -129249132454596e-29 14 222 2221 785 ?212 778 786 4 784 -0 0 212 778 22
 51 221 2267 0 211 214 784 0 +.004330127018922205 .0025 .017 -619418615866958e-3
0 1134818923691876e-30 -1 625e-6 -.5 .866025403784439 129249132454596e-29 81 1 7
85 2386 215 222 787 0 780 217 788 15 786 2223 0 789 222 790 17 789 0 786 789 789
 0 532 524 0 0 -15 790 2224 0 205 222 0 17 205 0 790 205 205 203 0 0 0 0 ?17 532
 0 223 532 532 0 789 524 0 0 +15 223 2230 0 532 212 791 15 791 2231 0 541 212 0
 17 541 0 791 541 541 0 529 527 0 0 -80 255 1 215 0 792 8001 0 0 0 0 3 5 0 0 0 F
FFFTFTFFFFFFF2 81 1 787 2385 793 222 0 785 794 795 796 81 1 780 2384 215 778 794
 0 782 785 797 81 1 217 2388 215 212 795 0 785 210 798 83 255 3 788 .5960784 .66
66667 .6862745 81 1 795 2387 793 212 0 217 787 216 799 83 3 798 .5960784 .666666
7 .6862745 80 1 793 800 801 8015 0 0 0 0 3 5 0 0 0 FFFFTFFFFFFFFF2 81 1 216 2389
 793 209 0 210 795 802 803 83 1 799 0 81 1 802 2391 793 211 0 218 216 0 804 83 1
 803 0 81 1 218 2392 215 211 802 0 210 0 805 83 1 804 0 83 3 805 .5960784 .66666
67 .6862745 79 255 21 801 SDL/TYSA_TRANSLUCENCY81 1 794 2383 793 778 0 780 806 7
87 807 81 1 782 2382 215 773 806 0 772 780 808 83 3 797 .5960784 .6666667 .68627
45 81 1 806 2381 793 773 0 782 809 794 810 81 1 772 2380 215 770 809 0 776 782 8
11 83 3 808 .5960784 .6666667 .6862745 81 1 809 2379 793 770 0 772 812 806 813 8
1 1 776 2378 215 765 812 0 764 772 814 83 3 811 .5960784 .6666667 .6862745 81 1
 812 2377 793 765 0 776 815 809 816 81 1 764 2376 215 762 815 0 768 776 817 83 3
 814 .5960784 .6666667 .6862745 81 1 815 2375 793 762 0 764 818 812 819 81 1 768
 2374 215 757 818 0 756 764 820 83 3 817 .5960784 .6666667 .6862745 81 1 818 237
3 793 757 0 768 821 815 822 81 1 756 2372 215 754 821 0 760 768 823 83 3 820 .59
60784 .6666667 .6862745 81 1 821 2371 793 754 0 756 824 818 825 81 1 760 2370 21
5 751 824 0 749 756 826 83 3 823 .5960784 .6666667 .6862745 81 1 824 2369 793 75
1 0 760 827 821 828 81 1 749 2368 215 693 827 0 746 760 829 83 3 826 .5960784 .6
666667 .6862745 81 1 827 2367 793 693 0 749 747 824 830 83 3 829 .5960784 .66666
67 .6862745 81 1 747 2365 793 707 0 746 831 827 832 83 1 830 0 81 1 831 2363 793
 702 0 748 833 747 834 83 1 832 0 81 1 748 2364 215 702 831 0 700 746 835 81 1 8
33 2361 793 692 0 700 698 831 836 83 1 834 0 81 1 700 2362 215 692 833 0 695 748
 837 81 1 698 2359 793 694 0 695 838 833 839 83 1 836 0 81 1 838 2357 793 696 0
 699 840 698 841 83 1 839 0 81 1 699 2358 215 696 838 0 842 695 843 81 1 840 235
5 793 704 0 842 844 838 845 83 1 841 0 14 704 1915 842 ?696 713 742 4 703 -692 6
92 696 713 22 81 1 842 2356 215 704 840 0 722 699 846 81 1 844 2353 793 713 0 72
2 847 840 848 83 1 845 0 81 1 722 2354 215 713 844 0 712 842 849 81 1 847 2351 7
93 710 0 712 850 844 851 83 1 848 0 81 1 712 2352 215 710 847 0 720 722 852 81 1
 850 2349 793 714 0 720 853 847 854 83 1 851 0 81 1 720 2350 215 714 850 0 717 7
12 855 81 1 853 2347 793 316 0 717 856 850 857 83 1 854 0 81 1 717 2348 215 316
 853 0 314 720 858 81 1 856 2345 793 17 0 314 312 853 859 83 1 857 0 81 1 314 23
46 215 17 856 0 309 717 860 81 1 312 2343 793 308 0 309 861 856 862 83 1 859 0 8
1 1 861 2341 793 310 0 313 863 312 864 83 1 862 0 81 1 313 2342 215 310 861 0 72
5 309 865 81 1 863 2339 793 318 0 725 866 861 867 83 1 864 0 81 1 725 2340 215 3
18 863 0 729 313 868 81 1 866 2337 793 623 0 729 732 863 869 83 1 867 0 81 1 729
 2338 215 623 866 0 730 725 870 81 1 732 2335 793 682 0 730 871 866 872 83 1 869
 0 81 1 871 2333 793 665 0 681 873 732 874 83 1 872 0 81 1 681 2334 215 665 871
 0 676 730 875 81 1 873 2331 793 660 0 676 674 871 876 83 1 874 0 81 1 676 2332
 215 660 873 0 672 681 877 81 1 674 2329 793 671 0 672 878 873 879 83 1 876 0 81
 1 878 2327 793 306 0 675 880 674 881 83 1 879 0 81 1 675 2328 215 306 878 0 305
 672 882 81 1 880 2325 793 302 0 305 883 878 884 83 1 881 0 81 1 305 2326 215 30
2 880 0 301 675 885 81 1 883 2323 793 299 0 301 684 880 886 83 1 884 0 81 1 301
 2324 215 299 883 0 683 305 887 81 1 684 2321 793 303 0 683 888 883 889 83 1 886
 0 81 1 888 2319 793 239 0 685 890 684 891 83 1 889 0 81 1 685 2320 215 239 888
 0 243 683 892 81 1 890 2317 793 241 0 243 893 888 894 83 1 891 0 81 1 243 2318
 215 241 890 0 251 685 895 81 1 893 2315 793 244 0 251 896 890 897 83 1 894 0 81
 1 251 2316 215 244 893 0 255 243 898 81 1 896 2313 793 252 0 255 899 893 900 83
 1 897 0 81 1 255 2314 215 252 896 0 259 251 901 81 1 899 2311 793 256 0 259 902
 896 903 83 1 900 0 81 1 259 2312 215 256 899 0 263 255 904 81 1 902 2309 793 26
0 0 263 905 899 906 83 1 903 0 81 1 263 2310 215 260 902 0 267 259 907 81 1 905
 2307 793 264 0 267 908 902 909 83 1 906 0 81 1 267 2308 215 264 905 0 271 263 9
10 81 1 908 2305 793 268 0 271 911 905 912 83 1 909 0 81 1 271 2306 215 268 908
 0 275 267 913 81 1 911 2303 793 272 0 275 914 908 915 83 1 912 0 81 1 275 2304
 215 272 911 0 279 271 916 81 1 914 2301 793 276 0 279 917 911 918 83 1 915 0 81
 1 279 2302 215 276 914 0 286 275 919 81 1 917 2299 793 280 0 286 920 914 921 83
 1 918 0 81 1 286 2300 215 280 917 0 290 279 922 81 1 920 2297 793 287 0 290 923
 917 924 83 1 921 0 81 1 290 2298 215 287 920 0 294 286 925 81 1 923 2295 793 29
1 0 294 926 920 927 83 1 924 0 81 1 294 2296 215 291 923 0 297 290 928 81 1 926
 2293 793 248 0 297 929 923 930 83 1 927 0 81 1 297 2294 215 248 926 0 247 294 9
31 81 1 929 2291 793 245 0 247 932 926 933 83 1 930 0 81 1 247 2292 215 245 929
 0 283 297 934 81 1 932 2289 793 233 0 283 935 929 936 83 1 933 0 81 1 283 2290
 215 233 932 0 231 247 937 81 1 935 2287 793 227 0 231 230 932 938 83 1 936 0 81
 1 231 2288 215 227 935 0 226 283 939 81 1 230 2285 793 15 0 226 0 935 940 83 1
 938 0 83 1 940 0 83 3 939 .5960784 .6666667 .6862745 83 3 937 .5960784 .6666667
 .6862745 83 3 934 .5960784 .6666667 .6862745 83 3 931 .5960784 .6666667 .686274
5 83 3 928 .5960784 .6666667 .6862745 83 3 925 .5960784 .6666667 .6862745 83 3 9
22 .5960784 .6666667 .6862745 83 3 919 .5960784 .6666667 .6862745 83 3 916 .5960
784 .6666667 .6862745 83 3 913 .5960784 .6666667 .6862745 83 3 910 .5960784 .666
6667 .6862745 83 3 907 .5960784 .6666667 .6862745 83 3 904 .5960784 .6666667 .68
62745 83 3 901 .5960784 .6666667 .6862745 83 3 898 .5960784 .6666667 .6862745 83
 3 895 .5960784 .6666667 .6862745 83 3 892 .5960784 .6666667 .6862745 83 3 887 .
5960784 .6666667 .6862745 83 3 885 .5960784 .6666667 .6862745 83 3 882 .5960784
 .6666667 .6862745 83 3 877 .5960784 .6666667 .6862745 83 3 875 .5960784 .666666
7 .6862745 83 3 870 .5960784 .6666667 .6862745 83 3 868 .5960784 .6666667 .68627
45 83 3 865 .5960784 .6666667 .6862745 83 3 860 .5960784 .6666667 .6862745 83 3
 858 .5960784 .6666667 .6862745 83 3 855 .5960784 .6666667 .6862745 83 3 852 .59
60784 .6666667 .6862745 83 3 849 .5960784 .6666667 .6862745 83 3 846 .5960784 .6
666667 .6862745 83 3 843 .5960784 .6666667 .6862745 83 3 837 .5960784 .6666667 .
6862745 83 3 835 .5960784 .6666667 .6862745 83 1 828 0 83 1 825 0 83 1 822 0 83
 1 819 0 83 1 816 0 83 1 813 0 83 1 810 0 83 1 807 0 83 1 796 0 79 15 792 SDL/TY
SA_COLOUR15 783 2190 0 941 773 942 17 941 0 783 941 941 0 526 518 0 0 -15 942 21
91 0 202 773 0 17 202 0 942 202 202 200 0 0 0 0 ?17 526 0 781 526 526 0 941 518
 0 0 +15 781 2197 0 526 778 943 15 943 2198 0 543 778 0 17 543 0 943 543 543 0 5
23 521 0 0 -15 777 2157 0 944 765 945 17 944 0 777 944 944 0 520 512 0 0 -15 945
 2158 0 199 765 0 17 199 0 945 199 199 197 0 0 0 0 ?17 520 0 774 520 520 0 944 5
12 0 0 +15 774 2164 0 520 770 946 15 946 2165 0 545 770 0 17 545 0 946 545 545 0
 517 515 0 0 -15 769 2124 0 947 757 948 17 947 0 769 947 947 0 514 507 0 0 -15 9
48 2125 0 196 757 0 17 196 0 948 196 196 194 0 0 0 0 ?17 514 0 766 514 514 0 947
 507 0 0 +15 766 2131 0 514 762 949 15 949 2132 0 547 762 0 17 547 0 949 547 547
 0 511 509 0 0 -15 761 2079 0 950 751 951 17 950 0 761 950 950 0 471 466 0 0 -15
 951 2080 0 193 751 0 17 193 0 951 193 193 191 0 0 0 0 ?17 471 0 758 471 471 0 9
50 466 0 0 +15 758 2088 0 471 754 952 15 952 2089 0 549 754 0 17 549 0 952 549 5
49 0 506 472 0 0 -83 3 750 .5960784 .6666667 .6862745 16 32 1832 0 ?31 406 453 4
07 0 0 1 15 736 131 0 953 233 0 17 953 0 736 953 953 0 584 582 0 0 -17 584 0 288
 584 584 0 953 582 0 0 +15 288 251 0 584 280 954 15 954 136 0 955 280 0 17 955 0
 954 955 955 0 587 585 0 0 -17 587 0 292 587 587 0 955 585 0 0 +15 292 252 0 587
 287 956 15 956 141 0 957 287 0 17 957 0 956 957 957 0 590 588 0 0 -17 590 0 295
 590 590 0 957 588 0 0 +15 295 253 0 590 291 958 15 958 146 0 552 291 0 17 552 0
 958 552 552 0 550 553 0 0 -17 355 0 284 360 352 155 627 361 0 0 +17 357 0 626 7
3 79 74 615 353 0 620 +17 82 0 311 323 322 80 79 611 0 326 -17 73 0 626 157 357
 71 620 609 0 622 +17 620 0 317 616 619 74 73 609 0 0 -17 422 0 731 420 413 161
 160 364 0 0 +17 417 0 731 413 420 164 959 414 0 0 +17 166 0 723 175 442 164 413
 411 0 441 -15 723 1519 0 61 713 0 17 175 0 723 61 166 173 441 439 0 960 -17 442
 0 723 166 61 158 961 415 0 413 +17 441 0 721 959 960 164 175 439 0 417 +15 721
 1509 0 960 714 0 17 959 0 721 172 441 56 417 414 0 420 -17 960 0 721 441 172 17
3 432 430 0 434 -17 172 0 721 960 959 170 58 437 0 962 -17 432 0 234 429 434 170
 960 430 0 0 +17 434 0 234 432 425 173 61 409 0 0 +15 234 1394 0 432 227 328 17
 425 0 234 434 429 59 963 423 0 0 +17 61 0 723 442 175 59 434 409 0 961 -17 961
 0 715 963 160 59 442 415 0 425 -15 715 1514 0 963 710 0 17 963 0 715 436 961 16
7 425 423 0 429 -17 160 0 715 961 436 158 422 364 0 442 -17 436 0 715 160 963 16
1 169 426 0 422 +17 169 0 718 962 163 167 436 426 0 963 -15 718 1504 0 962 316 0
 17 962 0 718 58 169 170 429 427 0 432 -17 163 0 718 169 58 161 420 418 0 436 -1
7 58 0 718 163 962 56 172 437 0 959 +17 420 0 731 417 422 56 163 418 0 0 +17 429
 0 234 425 432 167 962 427 0 0 +83 3 733 .5960784 .6666667 .6862745 83 3 701 .59
60784 .6666667 .6862745 83 3 686 .5960784 .6666667 .6862745 83 3 677 .5960784 .6
666667 .6862745 17 76 0 319 615 614 74 616 613 0 357 +17 581 0 281 581 581 0 964
 579 0 0 +15 281 249 0 581 276 0 17 964 0 965 964 964 0 581 579 0 0 -15 965 116
 0 964 272 0 17 578 0 277 578 578 0 966 576 0 0 +15 277 248 0 578 272 965 17 966
 0 967 966 966 0 578 576 0 0 -15 967 111 0 966 268 0 17 575 0 273 575 575 0 968
 573 0 0 +15 273 247 0 575 268 967 17 968 0 969 968 968 0 575 573 0 0 -15 969 10
6 0 968 264 0 17 572 0 269 572 572 0 970 570 0 0 +15 269 246 0 572 264 969 17 97
0 0 971 970 970 0 572 570 0 0 -15 971 101 0 970 260 0 17 569 0 265 569 569 0 972
 567 0 0 +15 265 245 0 569 260 971 17 972 0 973 972 972 0 569 567 0 0 -15 973 96
 0 972 256 0 17 566 0 261 566 566 0 974 561 0 0 +15 261 244 0 566 256 973 17 974
 0 975 974 974 0 566 561 0 0 -15 975 91 0 974 252 0 30 403 408 0 558 400 563 0 +
.000999999999999983 .0053 -.0042 1346145417358002e-30 0 1 17 560 0 257 560 560 0
 976 557 0 0 +15 257 243 0 560 252 975 17 976 0 977 976 976 0 560 557 0 0 -15 97
7 86 0 976 244 0 15 253 242 0 555 244 977 141 451 347 451 451 447 141 404 407 40
4 404 400 141 350 349 350 350 348 141 342 410 978 978 339 141 978 367 342 342 33
9 83 3 315 .5960784 .6666667 .6862745 83 3 232 .5960784 .6666667 .6862745 83 3 2
19 .5960784 .6666667 .6862745 19 16 1 0 1 0 8 4 S141 20 19 20 20 6 74 4 CI16 ind
ex_map_offset0 0 1 dCCZ20 14 3 0 0 2 802 218 0 0 0 0 0 0 0 0 0 0 0 0 0 0 0 0 0 8
0 2 11 979 980 8004 0 0 0 0 3 5 0 0 0 FFTFFFFFFFFFFF2 3 83 1 12 7830.64 84 255 8
 13 Kg/Cu M 79 16 980 SDL/TYSA_DENSITY1 0 
