**ABCDEFGHIJKLMNOPQRSTUVWXYZabcdefghijklmnopqrstuvwxyz**************************
**PARASOLID !"#$%&'()*+,-./:;<=>?@[\]^_`{|}~0123456789**************************
**PART1;
MC=x64/Windows NT;
MC_MODEL=genuineintel family 6 model 10 stepping 5, intel(r) xeon(r) cpu           w3550  @ 3.07ghz;
MC_ID=pc1401;
OS=windows nt (x64);
OS_RELEASE=6.1 windows 7 professional (build 7601) service pack 1;
FRU=mdc_ugii_v7.0_djl_can_vrh;
APPL=unigraphics;
SITE=unknown;
USER=huge;
FORMAT=text;
GUISE=transmit;
KEY=16-A_2;
FILE=D:\Daten-Huge\PLM_Export\A_Internet_Modelle\Getriebe\16-x\16-A\16-A_2.x_t;
DATE=22-aug-2016;
**PART2;
SCH=SCH_2701211_26105;
USFLD_SIZE=0;
**PART3;
**END_OF_HEADER*****************************************************************
T51 : TRANSMIT FILE created by modeller version 270121123 SCH_2701211_26105_1300
6200 0 12 30 CCCCCCCCCCCCCDI5 owner1040 0 CCCCCCCCCA13 boundary_mesh1006 0 A16 i
ndex_map_offset0 0 1 dA9 index_map82 0 A17 node_id_index_map82 0 A20 schema_embe
dding_map82 0 A5 child12 0 A14 lowest_node_id0 0 1 dZ1 2131 2 3 0 0 0 0 1e3 1e-8
 0 0 0 1 0 1 1 4 5 6 7 8 9 10 0 0 0 0 0 0 0 81 255 1 2 2131 11 1 12 0 0 0 13 70
 11 CI9 list_type0 0 1 uI10 notransmit0 0 1 lCCCDCCDI12 finger_index0 0 1 dI12 f
inger_block1012 0 CZ3 0 4 T1 0 0 6 20 1 14 14 13 255 4 3 0 1 0 15 0 0 16 0 52 25
5 5 240 0 17 18 0 0 +0 0 .0101 0 0 -1 .00092720595314676 .3420201433256675 .9396
92620785909 -1 0 0 31 255 6 1260 0 19 20 0 0 +.005 3061819224493265e-34 -.0092 0
 0 -1 -1 0 0 9e-4 29 255 7 1245 0 10 21 0 .003401 -.000826558527873254 -.0012 19
 8 CCCCCCCA5 owner12 0 Z8 1 0 1 16 0 22 V0 16 255 9 1890 23 ?24 0 25 26 0 0 1 18
 255 10 1242 0 27 0 28 7 ?1 17 255 27 0 29 30 31 10 32 33 0 34 +18 28 1078 0 35
 10 36 21 ?1 17 35 0 37 38 39 28 40 41 0 42 -18 36 837 0 43 28 44 45 ?1 29 21 10
80 0 28 45 7 .00347904753830495 .00602588709829161 0 29 45 840 0 36 46 21 -.0034
01 .000826558527873254 -.0012 29 46 674 0 44 47 45 -.00347904753830495 -.0060258
8709829161 0 18 44 672 0 48 36 49 46 ?1 29 47 787 0 50 51 46 -.00175 .0030310889
13245535 -.0012 18 50 733 0 52 49 53 47 ?1 29 51 788 0 53 54 47 -.00175 -.003031
088913245535 -.0012 18 53 732 0 55 50 56 51 ?1 29 54 789 0 49 57 51 -.0035 .0060
6217782649107 -.0012 18 49 736 0 58 44 50 54 ?1 29 57 790 0 56 59 54 -.0035 -.00
606217782649107 -.0012 18 56 734 0 60 53 61 57 ?1 29 59 792 0 61 62 57 -.0034790
47538304955 .00602588709829161 0 18 61 735 0 63 56 64 59 ?1 29 62 793 0 64 65 59
 -.00175 -.003031088913245535 0 18 64 730 0 66 61 67 62 1e-8 1 29 65 794 0 67 68
 62 -.00175 .003031088913245535 0 18 67 731 0 69 64 70 65 1e-8 1 29 68 940 0 70
 71 65 -.003401 -.000826558527873254 .0025 18 70 891 0 72 67 73 68 ?1 29 71 941
 0 73 74 68 -.003401 .000826558527873253 .0025 18 73 889 0 75 70 76 71 ?1 29 74
 942 0 76 77 71 -.003401 -.000826558527873255 -.0012 18 76 892 0 78 73 79 74 ?1
 29 77 1190 0 80 81 74 .00175 -.003031088913245535 -.0012 18 80 1136 0 82 79 83
 77 ?1 29 81 1191 0 83 84 77 .00175 .003031088913245535 -.0012 18 83 1135 0 85 8
0 86 81 ?1 29 84 1192 0 79 87 81 .0035 -.00606217782649107 -.0012 18 79 1139 0 8
8 76 80 84 ?1 29 87 1193 0 86 89 84 .0035 .00606217782649107 -.0012 18 86 1137 0
 40 83 90 87 ?1 29 89 1195 0 90 91 87 .00347904753830495 -.00602588709829161 0 1
8 90 1138 0 92 86 93 89 ?1 29 91 1196 0 93 94 89 .00175 .003031088913245535 0 18
 93 1133 0 38 90 95 91 1e-8 1 29 94 1197 0 95 96 91 .00175 -.003031088913245535
 0 18 95 1134 0 97 93 98 94 1e-8 1 29 96 1352 0 98 99 94 .003401 .00082655852787
3254 .0025 18 98 1303 0 100 95 101 96 ?1 29 99 1353 0 101 102 96 .003401 -.00082
6558527873253 .0025 18 101 1301 0 31 98 103 99 ?1 29 102 1354 0 103 0 99 .003401
 .000826558527873254 -.0012 18 103 1304 0 30 101 0 102 ?1 17 30 0 29 100 27 103
 34 104 0 105 +15 255 29 1336 0 31 106 107 17 100 0 29 31 30 98 105 108 0 109 +1
7 34 0 110 111 112 10 30 104 0 113 -16 104 1250 114 ?30 25 115 20 0 0 1 17 105 0
 116 85 117 103 100 108 0 112 -15 116 1282 0 105 118 0 17 85 0 116 119 105 83 11
2 120 0 121 +17 117 0 116 105 122 98 123 124 0 0 +16 108 1294 125 ?100 126 33 12
7 0 0 1 17 112 0 110 34 128 103 85 120 0 0 -15 110 1251 0 34 129 0 17 128 0 110
 112 130 83 39 131 0 0 -16 120 1247 132 ?85 133 131 134 133 133 1 81 1 132 1643
 135 120 0 0 136 125 137 16 133 1108 138 ?113 139 120 134 120 120 1 16 131 1110
 140 ?39 120 141 142 0 0 1 31 134 1186 0 133 143 144 0 +0 0 -.0012 0 0 1 -1 1224
606353822376e-31 0 .0035 30 255 143 1187 0 139 145 134 0 +.0035 -.00606217782649
107 -.0012 -.5 .866025403784439 0 31 144 1185 0 146 134 147 0 -0 0 0 0 0 1 -1 12
24606353822376e-31 0 .0069580950766099 16 146 1126 148 ?149 150 151 144 0 0 1 30
 147 1182 0 1 144 152 153 +.0035 -.00606217782649107 0 -.5 .866025403784439 0 30
 152 1179 0 41 147 154 0 +-112673594905287e-32 650521303491303e-33 .199253772980
4095 .0174497483512505 .03022385072365705 -.999390827019096 141 255 153 155 153
 153 147 133 255 155 1206 0 156 157 158 0 +147 .00347904753830495 -.006025887098
29161 0 .00175 -.003031088913245535 0 4190492339009695e-20 .0035 16 156 1114 159
 ?160 151 19 155 0 0 1 30 157 1204 0 1 161 155 162 -.00175 .003031088913245535 .
01068 0 0 1 133 158 1207 0 150 155 163 0 +163 .00175 -.003031088913245535 0 .001
75 -.003031088913245535 -.0012 -.01068 -.01188 16 150 1118 164 ?82 165 146 158 0
 0 1 30 163 1208 0 1 158 20 166 -.00175 -.003031088913245535 .01068 0 0 1 31 20
 1252 0 104 163 6 0 +.005 3061819224493265e-34 -.0012 0 0 1 1 0 0 .0018 141 166
 158 166 166 163 81 1 164 1633 135 150 0 0 167 168 169 17 82 0 170 113 171 80 97
 150 0 111 +16 165 1104 172 ?121 41 150 161 0 0 1 81 1 172 1635 135 165 0 0 168
 173 174 17 121 0 37 39 38 83 119 165 0 128 +16 41 1124 173 ?40 175 165 152 0 0
 1 133 161 1203 0 165 176 157 0 +157 .00175 .003031088913245535 0 .00175 .003031
088913245535 -.0012 -.01068 -.01188 30 176 1200 0 1 177 161 178 +-.00175 -.00303
1088913245535 0 .5 .866025403784439 0 133 177 1199 0 151 179 176 0 +176 .00175 .
003031088913245535 0 .003479047538304955 .00602588709829161 0 .007 .010458095076
6099 141 178 177 178 178 176 16 151 1120 167 ?180 146 156 177 0 0 1 133 179 1073
 0 181 182 177 0 +183 .00175 -.003031088913245535 0 -.00175 -.003031088913245535
 0 5.23598775598299 4.18879020478639 16 181 1071 184 ?66 185 186 179 0 0 1 31 18
2 855 0 187 188 179 0 +-.005 -918485099360515e-33 -.0092 0 0 -1 -1 0 0 9e-4 31 1
83 666 0 1 189 190 191 -0 0 0 0 0 1 1 0 0 .0035 31 189 543 0 192 193 183 0 +0 0
 -.0041 0 0 1 1 0 0 995e-6 133 190 670 0 185 183 194 0 +183 -.00175 .00303108891
3245535 0 .00175 .003031088913245535 0 2.094395102393195 1.047197551196598 141 1
91 190 195 195 183 141 195 179 191 191 183 16 185 35 196 ?197 198 181 190 0 0 1
 133 194 796 0 199 190 200 0 +200 -.00175 -.003031088913245535 0 -.0034790475383
04955 -.00602588709829161 0 .007 .0104580950766099 16 199 717 201 ?202 203 204 1
94 0 0 1 30 200 797 0 1 194 205 206 +.00175 .003031088913245535 0 -.5 -.86602540
3784439 0 133 205 800 0 207 200 208 0 +208 -.00175 -.003031088913245535 0 -.0017
5 -.003031088913245535 -.0012 -.01068 -.01188 141 206 194 206 206 200 16 207 701
 209 ?210 211 212 205 0 0 1 30 208 801 0 1 205 213 214 --.00175 -.00303108891324
5535 .01068 0 0 1 133 213 803 0 204 208 215 0 +216 -.003479047538304955 .0060258
8709829161 0 -.00175 .003031088913245535 0 4190492339009695e-20 .0035 141 214 20
5 214 214 208 16 204 711 217 ?218 199 187 213 0 0 1 133 215 804 0 212 213 219 0
 +219 -.00175 .003031088913245535 0 -.00175 .003031088913245535 -.0012 -.01068 -
.01188 30 216 779 0 1 220 221 222 +-.0035 .00606217782649107 0 .5 -.866025403784
439 0 31 220 782 0 203 223 216 0 -0 0 0 0 0 1 1 0 0 .0069580950766099 30 221 776
 0 211 216 224 0 +112673594905287e-32 -650521303491303e-33 .1992537729804095 -.0
174497483512505 -.03022385072365705 -.999390827019096 141 222 213 222 222 216 16
 211 721 225 ?60 226 207 221 0 0 1 30 224 775 0 226 221 227 0 -0 0 .199253772980
4095 .0174497483512505 -.03022385072365705 .999390827019096 16 226 727 228 ?58 2
29 211 224 0 0 1 31 227 580 0 230 224 231 0 +0 0 -.0031 0 0 1 1 0 0 995e-6 16 23
0 554 232 ?233 192 234 227 0 0 1 31 231 515 0 235 227 236 0 +0 0 -.0092 0 0 -1 1
 1224646799147352e-31 0 .007 16 235 475 237 ?238 239 240 231 0 0 1 31 236 514 0
 239 231 241 0 +0 0 -.0092 0 0 -1 1 1224646799147352e-31 0 .003 16 239 473 242 ?
243 244 235 236 0 0 1 31 241 512 0 240 236 245 0 +0 0 -.0077 0 0 -1 1 1224646799
147352e-31 0 .003 16 240 477 246 ?247 235 192 241 0 0 1 31 245 511 0 244 241 248
 0 -0 0 -.0091 0 0 -1 -1 0 0 .007 16 244 470 249 ?250 251 239 245 0 0 1 31 248 3
66 0 251 245 252 0 +0 0 -.0077 0 0 1 1 0 0 .001195 16 251 332 253 ?254 255 244 2
48 0 0 1 31 252 365 0 255 248 256 0 +0 0 -.0041 0 0 1 1 0 0 .001195 16 255 331 2
57 ?258 259 251 252 0 0 1 31 256 315 0 260 252 261 0 +2224492873652695e-38 -.005
5 -.004 0 0 -1 1 -1224606353822376e-31 0 8e-4 16 260 297 262 ?263 264 259 256 0
 0 1 31 261 314 0 259 256 265 0 +2224492873652695e-38 -.0055 0 0 0 -1 1 -1224606
353822376e-31 0 8e-4 16 259 298 266 ?267 260 255 261 0 0 1 31 265 281 0 268 261
 269 0 +-673555739531044e-33 .0055 -.004 0 0 -1 -1 0 0 8e-4 16 268 263 270 ?271
 272 264 265 0 0 1 31 269 280 0 264 265 273 0 +-673555739531044e-33 .0055 0 0 0
 -1 -1 0 0 8e-4 16 264 264 274 ?275 268 260 269 0 0 1 31 273 89 0 276 269 277 0
 +0 433680868994202e-33 .0041 0 0 1 1 0 0 .00175 16 276 72 278 ?279 280 272 273
 0 0 1 31 277 58 0 280 273 281 0 +0 0 0 0 0 -1 -1 0 0 .008 16 280 37 282 ?283 18
6 276 277 0 0 1 31 281 57 0 186 277 284 0 +0 0 -.0091 0 0 1 1 0 0 .008 16 186 36
 285 ?286 181 280 281 0 0 1 31 284 64 0 198 281 287 0 +0 433680868994202e-33 .00
3 0 0 1 1 0 0 .00175 16 198 61 288 ?289 290 185 284 0 0 1 31 287 95 0 124 284 29
1 0 -0 0 .0025 0 0 1 1 0 0 .0035 16 124 92 292 ?117 293 290 287 290 290 1 31 291
 101 0 293 287 294 0 +0 0 .003 0 0 1 1 0 0 .003 16 293 98 295 ?296 297 124 291 0
 0 1 31 294 153 0 272 291 298 0 -0 0 .0041 0 0 1 1 0 0 .001 16 272 163 299 ?300
 276 268 294 0 0 1 31 298 212 0 297 294 193 0 +0 0 .0101 0 0 1 1 0 0 .0009272059
5314676 16 297 209 301 ?302 303 293 298 0 0 1 31 193 220 0 303 298 189 0 -0 0 .0
099 0 0 1 1 0 0 .001 16 303 217 304 ?305 115 297 193 0 0 1 81 1 304 1588 135 303
 0 0 299 301 306 17 305 0 307 305 305 0 308 303 0 0 +16 115 845 309 ?78 104 303
 188 0 0 1 81 1 309 1628 135 115 0 0 310 196 311 17 78 0 312 313 43 76 314 115 0
 315 +31 188 847 0 115 219 182 0 +-.005 -918485099360515e-33 -.0012 0 0 1 1 0 0
 .0018 30 219 805 0 1 215 188 316 --.00175 .003031088913245535 .01068 0 0 1 141
 316 215 316 316 219 15 312 924 0 75 317 318 17 313 0 312 75 78 70 315 319 0 320
 +17 43 0 312 78 75 36 122 321 0 314 +17 314 0 322 323 324 36 78 115 0 325 -17 3
15 0 170 55 72 76 313 319 0 324 -15 170 1276 0 32 326 0 17 55 0 170 327 315 53 3
24 328 0 210 +17 72 0 170 315 32 70 329 290 0 313 +16 319 882 330 ?313 331 321 3
32 0 0 1 17 324 0 322 314 333 76 55 328 0 0 -15 322 846 0 314 334 0 17 333 0 322
 324 335 53 336 337 0 0 -16 328 842 338 ?55 339 337 223 339 339 1 81 1 338 1623
 135 328 0 0 340 341 342 16 339 705 341 ?325 234 328 223 328 328 1 16 337 707 34
3 ?336 328 229 344 0 0 1 31 223 783 0 339 345 220 0 +0 0 -.0012 0 0 1 1 0 0 .003
5 30 345 784 0 234 346 223 0 +-.0035 .00606217782649107 -.0012 .5 -.866025403784
439 0 16 234 703 347 ?348 230 339 345 0 0 1 31 346 785 0 229 344 345 0 +0 0 -.00
12 0 0 -1 1 1224646799147352e-31 0 .007 16 229 709 340 ?349 337 226 346 0 0 1 30
 344 786 0 337 350 346 0 +.00175 .003031088913245535 -.0012 -.5 -.86602540378443
9 0 38 255 350 933 0 331 332 344 0 +18 351 352 353 354 16 331 883 355 ?75 187 31
9 350 0 0 1 30 332 934 0 319 356 350 0 --.003401 -.000826558527873255 65e-5 0 0
 -1 52 18 117 0 357 358 5 359 +0 0 .0025 0 0 -1 .0035 .707106781186548 .70710678
1186548 -1 0 0 51 255 351 928 0 317 360 361 362 +-.005 -918485099360515e-33 .003
 0 0 -1 .0018 -1 0 0 40 255 6 352 0 1 6 860423950808757e-19 .3900876710078 ??-.0
03401140004 -.000826829313214572 .0024998 -.003265913923152495 -.000482644256242
253 .00269861555835662 -.00320158382114441 -754933614992386e-19 .002797526235635
32 -.003223749172196685 .000291432662424858 .002763104616771365 -.00332806694236
935 .000666813205329521 .00260578883631358 -.003401140004 .000826829313214571 .0
024998 41 255 1 353 L-.003401140004 -.000826829313214572 .0024998 41 1 354 L-.00
3401140004 .000826829313214571 .0024998 14 255 317 921 363 ?129 364 312 4 351 -0
 0 129 364 22 50 255 360 929 0 364 365 351 0 +-.005 -918485099360515e-33 -.0017
 0 0 -1 -1 0 0 50 361 774 0 334 351 366 0 +0 0 -.0012 0 0 1 1 0 0 141 362 350 36
2 362 351 14 334 747 367 ?368 369 322 4 361 +0 0 368 369 22 50 366 772 0 368 361
 370 0 +-.0035 .00606217782649107 -.0012 .866025403784439 .5 0 -.5 .866025403784
439 0 14 368 752 371 ?372 334 373 4 366 -0 0 372 334 22 50 370 770 0 372 366 374
 0 +.00175 .003031088913245535 -.0012 .866025403784439 -.5 0 .5 .866025403784439
 0 14 372 757 375 ?376 368 377 4 370 -0 0 376 368 22 52 374 769 0 376 370 378 0
 +0 0 -.0012 0 0 -1 .007 .03489949670250095 .999390827019096 1 0 0 14 376 762 37
9 ?380 372 381 4 374 -0 0 380 372 22 50 378 578 0 369 374 382 0 +0 0 -.0031 0 0
 1 1 0 0 14 369 561 383 ?334 384 385 4 378 -0 0 334 384 22 51 382 576 0 384 378
 386 0 +0 0 -.0091 0 0 1 995e-6 1 0 0 14 384 569 387 ?369 388 389 4 382 -0 0 369
 388 22 50 386 510 0 15 382 390 0 +0 0 -.0092 0 0 -1 -1 0 0 14 15 496 391 ?118 0
 392 4 386 +0 0 118 0 22 51 390 508 0 393 386 394 0 -0 0 -.0092 0 0 1 .003 1 0 0
 14 393 490 395 ?396 397 398 4 390 +0 0 396 397 22 51 394 507 0 397 390 399 0 -0
 0 -.0092 0 0 1 .007 1 0 0 14 397 484 400 ?393 401 402 4 394 -0 0 393 401 22 50
 399 363 0 396 394 403 0 +0 0 -.0041 0 0 1 1 0 0 14 396 339 404 ?405 393 406 4 3
99 -0 0 405 393 22 51 403 362 0 405 399 407 0 +0 0 -.0041 0 0 1 .001195 1 0 0 14
 405 343 408 ?388 396 409 4 403 -0 0 388 396 22 50 407 361 0 388 403 410 0 +0 0
 -.0077 0 0 1 1 0 0 14 388 348 411 ?384 405 412 4 407 -0 0 384 405 22 50 410 313
 0 413 407 414 0 +2224492873652695e-38 -.0055 -.004 0 0 -1 1 -1224606353822376e-
31 0 14 413 299 415 ?401 416 417 4 410 -0 0 401 416 22 51 414 311 0 401 410 418
 0 +2224492873652695e-38 -.0055 0 0 0 -1 8e-4 1 -1224606353822376e-31 0 14 401 3
05 419 ?397 413 420 4 414 -0 0 397 413 22 50 418 279 0 421 414 422 0 +-673555739
531044e-33 .0055 -.004 0 0 -1 -1 0 0 14 421 265 423 ?416 17 424 4 418 -0 0 416 1
7 22 51 422 277 0 416 418 425 0 +-673555739531044e-33 .0055 0 0 0 -1 8e-4 -1 0 0
 14 416 271 426 ?413 421 427 4 422 -0 0 413 421 22 50 425 194 0 428 422 429 0 +0
 0 .0101 0 0 1 1 0 0 14 428 180 430 ?17 431 432 4 425 +0 0 17 431 22 51 429 192
 0 431 425 433 0 -0 0 .0101 0 0 -1 .001 -1 0 0 14 431 174 434 ?428 357 307 4 429
 -0 0 428 357 22 50 433 87 0 435 429 436 0 +0 433680868994202e-33 .0041 0 0 1 1
 0 0 14 435 74 437 ?438 439 440 4 433 +0 0 438 439 22 51 436 85 0 441 433 442 0
 +0 433680868994202e-33 .003 0 0 1 .00175 1 0 0 14 441 79 443 ?357 444 445 4 436
 +0 0 357 444 22 50 442 55 0 439 436 446 0 +0 0 0 0 0 1 1 0 0 14 439 43 447 ?435
 118 448 4 442 +0 0 435 118 22 50 446 54 0 449 442 450 0 +0 0 -.0091 0 0 -1 -1 0
 0 14 449 40 451 ?444 326 452 4 446 +0 0 444 326 22 51 450 53 0 444 446 453 0 +0
 0 0 0 0 -1 .008 -1 0 0 14 444 47 454 ?441 449 455 4 450 +0 0 441 449 22 50 453
 17 0 438 450 358 0 +0 0 .003 0 0 1 1 0 0 14 438 15 456 ?326 435 457 4 453 +0 0
 326 435 22 51 358 18 0 326 453 18 0 +0 0 0 0 0 1 .0035 1 0 0 14 326 2 458 ?449
 438 170 4 358 +118 118 449 438 22 81 1 458 2038 459 326 460 0 456 451 461 14 11
8 1277 462 ?439 15 116 4 358 +326 326 439 15 22 13 22 4 0 0 0 0 0 0 8 15 81 1 46
2 2030 459 118 463 0 391 447 464 80 255 1 459 0 465 8001 0 0 0 0 3 5 0 0 0 FFFFT
FTFFFFFFF2 81 1 463 2029 466 118 467 462 468 469 470 81 1 391 2028 459 15 468 0
 0 462 471 81 1 447 2032 459 439 469 0 462 437 472 83 255 3 464 .6 .6 .6 81 1 46
9 2031 466 439 473 447 463 474 475 81 1 437 2034 459 435 474 0 447 456 476 83 3
 472 .6 .6 .6 81 1 474 2033 466 435 477 437 469 478 479 81 1 456 2036 459 438 47
8 0 437 458 480 83 3 476 .6 .6 .6 81 1 478 2035 466 438 481 456 474 460 482 83 3
 480 .6 .6 .6 80 1 466 483 484 8015 0 0 0 0 3 5 0 0 0 FFFFTFFFFFFFFF2 81 1 481 1
648 135 438 0 478 485 473 486 81 1 460 2037 466 326 485 458 478 487 488 83 1 482
 0 81 1 485 1647 135 326 0 460 114 481 489 81 1 487 2039 466 449 490 451 460 491
 492 83 1 488 0 81 1 490 1651 135 449 0 487 493 494 495 81 1 451 2040 459 449 48
7 0 458 454 496 81 1 491 2041 466 444 493 454 487 497 498 83 1 492 0 81 1 493 16
50 135 444 0 491 473 490 499 81 1 454 2042 459 444 491 0 451 443 500 81 1 497 20
43 466 441 494 443 491 501 502 83 1 498 0 81 1 494 1652 135 441 0 497 490 477 50
3 81 1 443 2044 459 441 497 0 454 504 505 81 1 501 2045 466 357 506 504 497 507
 508 83 1 502 0 14 357 110 504 ?431 441 509 4 18 +0 0 431 441 22 81 1 506 1669 1
35 357 0 501 510 511 512 81 1 504 2046 459 357 501 0 443 434 513 81 1 507 2047 4
66 431 514 434 501 515 516 83 1 508 0 81 1 514 1654 135 431 0 507 477 517 518 81
 1 434 2048 459 431 507 0 504 430 519 81 1 515 2049 466 428 517 430 507 520 521
 83 1 516 0 81 1 517 1655 135 428 0 515 514 522 523 81 1 430 2050 459 428 515 0
 434 524 525 81 1 520 2051 466 17 522 524 515 526 527 83 1 521 0 14 17 233 524 ?
421 428 528 4 5 +0 0 421 428 22 81 1 522 1656 135 17 0 520 517 529 530 81 1 524
 2052 459 17 520 0 430 423 531 81 1 526 2053 466 421 529 423 520 532 533 83 1 52
7 0 81 1 529 1657 135 421 0 526 522 534 535 81 1 423 2054 459 421 526 0 524 426
 536 81 1 532 2055 466 416 534 426 526 537 538 83 1 533 0 81 1 534 1658 135 416
 0 532 529 539 540 81 1 426 2056 459 416 532 0 423 415 541 81 1 537 2057 466 413
 539 415 532 542 543 83 1 538 0 81 1 539 1659 135 413 0 537 534 544 545 81 1 415
 2058 459 413 537 0 426 419 546 81 1 542 2059 466 401 544 419 537 547 548 83 1 5
43 0 81 1 544 1660 135 401 0 542 539 549 550 81 1 419 2060 459 401 542 0 415 400
 551 81 1 547 2061 466 397 552 400 542 553 554 83 1 548 0 81 1 552 1664 135 397
 0 547 555 556 557 81 1 400 2062 459 397 547 0 419 395 558 81 1 553 2063 466 393
 556 395 547 559 560 83 1 554 0 81 1 556 1665 135 393 0 553 552 561 562 81 1 395
 2064 459 393 553 0 400 404 563 81 1 559 2065 466 396 549 404 553 564 565 83 1 5
60 0 81 1 549 1661 135 396 0 559 544 566 567 81 1 404 2066 459 396 559 0 395 408
 568 81 1 564 2067 466 405 566 408 559 569 570 83 1 565 0 81 1 566 1662 135 405
 0 564 549 555 571 81 1 408 2068 459 405 564 0 404 411 572 81 1 569 2069 466 388
 555 411 564 573 574 83 1 570 0 81 1 555 1663 135 388 0 569 566 552 575 81 1 411
 2070 459 388 569 0 408 387 576 81 1 573 2071 466 384 510 387 569 577 578 83 1 5
74 0 81 1 510 1668 135 384 0 573 579 506 580 81 1 387 2072 459 384 573 0 411 383
 581 81 1 577 2073 466 369 579 383 573 582 583 83 1 578 0 81 1 579 1667 135 369
 0 577 561 510 584 81 1 383 2074 459 369 577 0 387 367 585 81 1 582 2075 466 334
 586 367 577 587 588 83 1 583 0 81 1 586 1673 135 334 0 582 589 590 591 81 1 367
 2076 459 334 582 0 383 371 592 81 1 587 2077 466 368 589 371 582 593 594 83 1 5
88 0 81 1 589 1672 135 368 0 587 595 586 596 81 1 371 2078 459 368 587 0 367 375
 597 81 1 593 2079 466 372 595 375 587 598 599 83 1 594 0 81 1 595 1671 135 372
 0 593 511 589 600 81 1 375 2080 459 372 593 0 371 379 601 81 1 598 2081 466 376
 511 379 593 602 603 83 1 599 0 81 1 511 1670 135 376 0 598 506 595 604 81 1 379
 2082 459 376 598 0 375 605 606 81 1 602 2083 466 380 607 605 598 608 609 83 1 6
03 0 14 380 911 605 ?364 376 610 4 365 -0 0 364 376 22 81 1 607 2011 135 380 0 6
02 611 612 613 81 1 605 2084 459 380 602 0 379 614 615 81 1 608 2085 466 364 612
 614 602 616 617 83 1 609 0 14 364 916 614 ?317 380 618 4 360 -0 0 317 380 22 81
 1 612 2012 135 364 0 608 607 619 620 81 1 614 2086 459 364 608 0 605 363 621 81
 1 616 2087 466 317 590 363 608 622 623 83 1 617 0 81 1 590 1676 135 317 0 616 5
86 467 624 81 1 363 2088 459 317 616 0 614 625 626 81 1 622 2089 466 129 627 625
 616 628 629 83 1 623 0 14 129 1150 625 ?630 317 110 4 631 +0 0 630 317 22 81 1
 627 1680 135 129 0 622 632 633 634 81 1 625 2090 459 129 622 0 363 635 636 81 1
 628 2091 466 630 637 635 622 638 639 83 1 629 0 14 630 1155 635 ?640 129 641 4
 642 -0 0 640 129 22 81 1 637 1683 135 630 0 628 643 644 645 81 1 635 2092 459 6
30 628 0 625 646 647 81 1 638 2093 466 640 643 646 628 648 649 83 1 639 0 14 640
 1160 646 ?650 630 37 4 651 -0 0 650 630 22 81 1 643 1682 135 640 0 638 633 637
 652 81 1 646 2094 459 640 638 0 635 653 654 81 1 648 2095 466 650 633 653 638 6
55 656 83 1 649 0 14 650 1165 653 ?657 640 658 4 659 -0 0 657 640 22 81 1 633 16
81 135 650 0 648 627 643 660 81 1 653 2096 459 650 648 0 646 661 662 81 1 655 20
97 466 657 663 661 648 664 665 83 1 656 0 14 657 1323 661 ?666 650 667 4 668 -0
 0 666 650 22 81 1 663 2019 135 657 0 655 669 670 671 81 1 661 2098 459 657 655
 0 653 672 673 81 1 664 2099 466 666 670 672 655 674 675 83 1 665 0 14 666 1328
 672 ?106 657 676 4 677 -0 0 106 657 22 81 1 670 2020 135 666 0 664 663 678 679
 81 1 672 2100 459 666 664 0 661 680 681 81 1 674 2101 466 106 644 680 664 682 6
83 83 1 675 0 14 106 1333 680 ?684 666 29 4 685 -0 0 684 666 22 81 1 644 1685 13
5 106 0 674 637 686 687 81 1 680 2102 459 106 674 0 672 688 689 81 1 682 2103 46
6 684 690 688 674 691 692 83 1 683 0 14 684 1540 688 ?693 106 694 4 695 +0 0 693
 106 22 81 1 690 1678 135 684 0 682 467 632 696 81 1 688 2104 459 684 682 0 680
 697 698 81 1 691 2105 466 693 632 697 682 699 700 83 1 692 0 14 693 1546 697 ?7
01 684 702 4 703 -0 0 701 684 22 81 1 632 1679 135 693 0 691 690 627 704 81 1 69
7 2106 459 693 691 0 688 705 706 81 1 699 2107 466 701 707 705 691 708 709 83 1
 700 0 14 701 1842 705 ?710 693 711 4 712 +0 0 710 693 22 81 1 707 2014 135 701
 0 699 619 713 714 81 1 705 2108 459 701 699 0 697 715 716 81 1 708 2109 466 710
 619 715 699 717 718 83 1 709 0 14 710 1851 715 ?719 701 720 4 721 +0 0 719 701
 22 81 1 619 2013 135 710 0 708 612 707 722 81 1 715 2110 459 710 708 0 705 723
 724 81 1 717 2111 466 719 713 723 708 725 726 83 1 718 0 14 719 1846 723 ?727 7
10 728 4 729 +0 0 727 710 22 81 1 713 2015 135 719 0 717 707 730 731 81 1 723 21
12 459 719 717 0 715 732 733 81 1 725 2113 466 727 734 732 717 735 736 83 1 726
 0 14 727 1856 732 ?737 719 738 4 739 +0 0 737 719 22 81 1 734 2017 135 727 0 72
5 730 669 740 81 1 732 2114 459 727 725 0 723 741 742 81 1 735 2115 466 737 730
 741 725 743 744 83 1 736 0 14 737 1860 741 ?745 727 746 4 747 +0 0 745 727 22 8
1 1 730 2016 135 737 0 735 713 734 748 81 1 741 2116 459 737 735 0 732 749 750 8
1 1 743 2117 466 745 669 749 735 751 752 83 1 744 0 14 745 1865 749 ?753 737 754
 4 755 +0 0 753 737 22 81 1 669 2018 135 745 0 743 734 663 756 81 1 749 2118 459
 745 743 0 741 757 758 81 1 751 2119 466 753 759 757 743 760 761 83 1 752 0 14 7
53 1938 757 ?762 745 763 4 764 +0 0 762 745 22 81 1 759 2022 135 753 0 751 678 7
65 766 81 1 757 2120 459 753 751 0 749 767 768 81 1 760 2121 466 762 678 767 751
 769 770 83 1 761 0 14 762 1947 767 ?771 753 772 4 773 +0 0 771 753 22 81 1 678
 2021 135 762 0 760 670 759 774 81 1 767 2122 459 762 760 0 757 775 776 81 1 769
 2123 466 771 765 775 760 777 778 83 1 770 0 14 771 1942 775 ?779 762 780 4 781
 +0 0 779 762 22 81 1 765 2023 135 771 0 769 759 782 783 81 1 775 2124 459 771 7
69 0 767 784 785 81 1 777 2125 466 779 786 784 769 787 788 83 1 778 0 14 779 195
2 784 ?789 771 790 4 791 +0 0 789 771 22 81 1 786 2025 135 779 0 777 782 792 793
 81 1 784 2126 459 779 777 0 775 794 795 81 1 787 2127 466 789 782 794 777 796 7
97 83 1 788 0 14 789 1956 794 ?798 779 799 4 800 +0 0 798 779 22 81 1 782 2024 1
35 789 0 787 765 786 801 81 1 794 2128 459 789 787 0 784 802 803 81 1 796 2129 4
66 798 792 802 787 0 804 83 1 797 0 14 798 1961 802 ?0 789 805 4 806 +0 0 0 789
 22 81 1 792 2026 135 798 0 796 786 0 807 81 1 802 2130 459 798 796 0 794 0 808
 83 1 804 0 83 3 808 .6 .6 .6 80 1 135 809 810 9000 1 1 1 1 1 1 1 1 0 FFFFTFTFFF
FFFF3 84 255 32 807 bd3236817feb4f1be985f0760002f02e79 255 15 810 UGS/ObjectStat
e15 805 1964 0 811 798 812 52 806 1968 0 798 773 739 0 +.005 -612303176911189e-3
3 -.012 0 0 1 6e-4 .707106781186547 .707106781186548 1 0 0 52 773 1969 0 762 764
 806 0 +.005 3061819224493265e-34 -.0017 0 0 -1 .0015 .0871557427476582 .9961946
98091746 -1 1224606353822376e-31 0 50 739 1877 0 727 806 747 0 +-.005 0 -.012 0
 0 -1 -1 0 0 51 747 1876 0 737 739 729 0 +-.005 0 -.0017 0 0 -1 8e-4 -1 0 0 50 7
29 1875 0 719 747 712 0 +-.005 -918485099360515e-33 -.0017 0 0 -1 -1 0 0 50 712
 1874 0 701 729 721 0 +-.005 -918485099360515e-33 -7e-4 0 0 1 1 0 0 52 721 1873
 0 710 712 755 0 +-.005 -918485099360515e-33 -.0017 0 0 -1 .0015 .08715574274765
82 .996194698091746 1 0 0 52 755 1872 0 745 721 703 0 +-.005 0 -.012 0 0 1 6e-4
 .707106781186547 .707106781186548 1 0 0 50 703 1557 0 693 755 695 0 +.0025 .004
330127018922195 -.0099 0 0 1 1 0 0 51 695 1555 0 684 703 668 0 +.0025 .004330127
018922195 -.0099 0 0 1 6e-4 1 0 0 51 668 1342 0 657 695 677 0 +.005 306181922449
3265e-34 -.0151242808822751 0 0 -1 9e-4 1 -1224606353822376e-31 0 50 677 1341 0
 666 668 685 0 +.005 3061819224493265e-34 -.0017 0 0 -1 1 -1224606353822376e-31
 0 51 685 1340 0 106 677 631 813 +.005 3061819224493265e-34 .003 0 0 -1 .0018 1
 -1224606353822376e-31 0 50 631 1177 0 129 685 642 0 +0 0 -.0012 0 0 1 -1 122460
6353822376e-31 0 141 813 814 813 813 685 38 814 1345 0 126 127 142 0 +18 685 815
 816 817 16 126 1295 818 ?31 19 108 814 0 0 1 30 127 1346 0 108 819 814 0 -.0034
01 .000826558527873255 65e-5 0 0 -1 30 142 1189 0 131 814 145 0 +-.00175 -.00303
1088913245535 -.0012 .5 .866025403784439 0 40 6 815 0 1 6 860423950808758e-19 .3
900876710077995 ??.003401140004 .000826829313214572 .0024998 .0032659139231525 .
000482644256242254 .00269861555835662 .00320158382114441 754933614992397e-19 .00
279752623563532 .003223749172196685 -.000291432662424857 .002763104616771365 .00
332806694236935 -.000666813205329519 .002605788836313585 .003401140004 -.0008268
29313214572 .0024998 41 1 816 L.003401140004 .000826829313214572 .0024998 41 1 8
17 L.003401140004 -.000826829313214572 .0024998 31 145 1188 0 141 142 143 0 +0 0
 -.0012 0 0 -1 -1 -4044532497594895e-36 0 .007 16 141 1112 168 ?820 131 175 145
 0 0 1 81 1 168 1634 135 141 0 0 164 172 821 17 820 0 658 822 40 79 130 141 0 82
3 +16 175 1130 824 ?88 141 41 154 0 0 1 81 1 824 1640 135 175 0 0 159 138 825 17
 88 0 641 826 92 79 822 175 0 820 +30 154 1178 0 175 152 827 0 -0 0 .19925377298
04095 -.0174497483512505 .03022385072365705 .999390827019096 31 827 938 0 828 15
4 829 0 +-.005 -918485099360515e-33 -.0017 0 0 -1 -1 0 0 .0018 16 828 888 830 ?8
31 832 139 827 0 0 1 31 829 937 0 832 827 356 0 +-.005 -918485099360515e-33 -.00
17 0 0 -1 -1 0 0 9e-4 16 832 887 833 ?834 321 828 829 0 0 1 30 356 935 0 321 829
 332 0 +-.003401 .000826558527873254 65e-5 0 0 -1 16 321 884 310 ?43 319 832 356
 0 0 1 81 1 310 1627 135 321 0 0 355 309 835 81 1 355 1626 135 331 0 0 330 310 8
36 84 32 835 8af6960b759986fa774623831663d76181 1 330 1625 135 319 0 0 341 355 8
37 84 32 836 e79eb3ecf8fc1f96d32b7e44c1b918e381 1 341 1624 135 339 0 0 338 330 8
38 84 32 837 a4a98aee7f93d5ba2b4ea6d2094101e684 32 838 e474ff74daaa2ec69b3c57ad7
8bcc0b081 1 833 2008 135 832 0 0 23 839 840 17 834 0 728 834 834 0 841 832 0 0 +
15 728 1849 0 834 719 842 17 841 0 843 841 841 0 834 832 0 0 -15 843 915 0 841 3
80 0 15 842 1850 0 844 719 0 17 844 0 842 844 844 0 845 846 0 0 -17 845 0 847 84
5 845 0 844 846 0 0 +16 846 1837 848 ?845 849 850 851 0 0 1 81 1 848 2000 135 84
6 0 0 686 852 853 16 849 1833 854 ?855 856 846 857 0 0 1 16 850 1827 686 ?858 84
6 859 860 0 0 1 31 851 1880 0 846 860 857 0 +-.005 0 -.0017 0 0 -1 -1 0 0 8e-4 3
1 860 1881 0 850 861 851 0 --.005 -918485099360515e-33 -7e-4 0 0 1 1 0 0 .001412
511336474076 31 857 1879 0 849 851 862 0 +-.005 0 -.012 0 0 -1 -1 0 0 6e-4 31 86
2 1878 0 856 857 863 0 --.005 0 -.0118 0 0 -1 -1 0 0 8e-4 16 856 1835 852 ?864 8
65 849 862 0 0 1 31 863 1559 0 866 862 867 0 +.0025 .004330127018922195 -.0099 0
 0 1 -1 1224646799147352e-31 0 6e-4 16 866 1534 868 ?869 870 865 863 0 0 1 31 86
7 1558 0 865 863 871 0 +.0025 .004330127018922195 -.0092 0 0 1 -1 12246467991473
52e-31 0 6e-4 16 865 1536 872 ?873 866 856 867 0 0 1 31 871 1350 0 870 867 874 0
 +.005 3061819224493265e-34 -.0017 0 0 -1 1 -1224606353822376e-31 0 .0018 16 870
 1300 875 ?876 877 866 871 0 0 1 31 874 1349 0 877 871 819 0 +.005 3061819224493
265e-34 -.0017 0 0 -1 1 -1224606353822376e-31 0 9e-4 16 877 1299 839 ?878 33 870
 874 0 0 1 30 819 1347 0 33 874 127 0 +.003401 -.000826558527873254 65e-5 0 0 -1
 16 33 1296 136 ?27 108 877 819 0 0 1 81 1 136 1642 135 33 0 0 138 132 879 81 1
 138 1641 135 133 0 0 824 136 880 84 32 879 f936584cf7882ffc9714fb29c9a91d2084 3
2 880 e6aca0c13452537f2ae86809f854fe3481 1 839 2009 135 877 0 0 833 611 881 17 8
78 0 780 878 878 0 882 877 0 0 +15 780 1945 0 878 771 883 17 882 0 884 882 882 0
 878 877 0 0 -15 884 1327 0 882 657 0 15 883 1946 0 885 771 0 17 885 0 883 885 8
85 0 886 887 0 0 -17 886 0 888 886 886 0 885 887 0 0 +16 887 1933 889 ?886 890 8
91 892 0 0 1 81 1 889 2004 135 887 0 0 893 894 895 16 890 1929 896 ?897 859 887
 898 0 0 1 16 891 1923 893 ?899 887 0 900 0 0 1 31 892 1976 0 887 900 898 0 +.00
5 -612303176911189e-33 -.0017 0 0 -1 -1 0 0 8e-4 31 900 1977 0 891 26 892 0 -.00
5 3061819224493265e-34 -7e-4 0 0 1 1 0 0 .001412511336474076 31 898 1975 0 890 8
92 901 0 +.005 -612303176911189e-33 -.012 0 0 -1 -1 0 0 6e-4 31 901 1974 0 859 8
98 861 0 -.005 -612303176911189e-33 -.0118 0 0 -1 -1 0 0 8e-4 16 859 1931 894 ?9
02 850 890 901 0 0 1 31 861 1882 0 25 901 860 0 +-.005 -918485099360515e-33 -.00
17 0 0 1 1 0 0 .0015 16 25 1794 611 ?903 9 104 861 0 0 1 81 1 611 2010 135 25 0
 0 839 607 904 17 903 0 905 903 903 0 906 25 0 0 +15 905 1855 0 903 710 0 17 906
 0 618 906 906 0 903 25 0 0 -15 618 1796 0 906 364 907 15 907 920 0 908 364 0 17
 908 0 907 908 908 0 831 828 0 0 -17 831 0 318 831 831 0 908 828 0 0 +15 318 925
 0 831 317 0 84 32 904 00d470e6690db52ccb6d4076c23e2a2881 1 894 2005 135 859 0 0
 889 896 909 17 902 0 799 902 902 0 811 859 0 0 +15 799 1959 0 902 789 888 17 81
1 0 805 811 811 0 902 859 0 0 -15 888 1960 0 886 789 0 81 1 896 2006 135 890 0 0
 894 23 910 84 32 909 36edb0744f7f4b01eb0e3792bb33a93c81 1 23 2007 135 9 0 0 896
 833 911 84 32 910 d827593cc63d9918bd88b7fe17383c9084 32 911 24174e428d37d6b2df3
59882ef4c74fd31 26 1978 0 9 0 900 0 +.005 3061819224493265e-34 -.0017 0 0 1 -1 1
224606353822376e-31 0 .0015 81 1 893 2003 135 891 0 0 854 889 912 17 899 0 772 8
99 899 0 913 891 0 0 +15 772 1950 0 899 762 914 17 913 0 763 913 913 0 899 891 0
 0 -15 763 1941 0 913 753 0 15 914 1951 0 24 762 0 17 24 0 914 24 24 0 915 9 0 0
 +17 915 0 676 915 915 0 24 9 0 0 -15 676 1892 0 915 666 916 15 916 1332 0 917 6
66 0 17 917 0 916 917 917 0 876 870 0 0 -17 876 0 107 876 876 0 917 870 0 0 +15
 107 1337 0 876 106 0 81 1 854 2002 135 849 0 0 852 893 918 84 32 912 935f72a7bc
c9e67f95672422ec18ab4781 1 852 2001 135 856 0 0 848 854 919 84 32 918 bda0895c55
6fa512f1db3c58a0826ab484 32 919 75ea25ebb08bb2e655ed3fc172b0a18417 897 0 790 897
 897 0 920 890 0 0 +15 790 1955 0 897 779 0 17 920 0 812 920 920 0 897 890 0 0 -
15 812 1965 0 920 798 0 84 32 895 5b7d572e90eb96d5202cb57533b5d6f884 32 881 45c0
05bdf7f7a246f0307833e6dad3a681 1 875 1608 135 870 0 0 868 921 922 81 1 868 1607
 135 866 0 0 872 875 923 81 1 921 1609 135 19 0 0 875 184 924 84 32 922 5f3d8bb8
9ec084ac3ed40a80dd8bdbb016 19 1292 921 ?925 156 126 6 0 0 1 81 1 184 1611 135 18
1 0 0 921 926 927 84 32 924 3f9cebdad64ac8c0bf1f42752a7399fd81 1 926 1612 135 29
0 0 0 184 201 928 84 32 927 2890e703889bbb9462edf6fc798a34e916 290 1269 926 ?72
 124 198 287 124 124 1 81 1 201 1613 135 199 0 0 926 217 929 84 32 928 d9c456d58
9e73dc63620054f332e4fee81 1 217 1614 135 204 0 0 201 930 931 84 32 929 d26c77004
410ed88d0e96e2aba452fcd81 1 930 1615 135 203 0 0 217 225 932 84 32 931 2bef64668
5f9c30fdd81467ec2346e2516 203 723 930 ?933 212 199 220 0 0 1 81 1 225 1616 135 2
11 0 0 930 228 934 84 32 932 0fb265db9b55f0ea7836cb42b8f2552d81 1 228 1617 135 2
26 0 0 225 935 936 84 32 934 cd64a2ae163da0aa4f140c51a89a10f081 1 935 1618 135 2
12 0 0 228 209 937 84 32 936 39ffac7438ac95bab164e918080016b216 212 715 935 ?52
 207 203 215 0 0 1 81 1 209 1619 135 207 0 0 935 343 938 84 32 937 44e3045a0380e
66ffedc5248d3577f7881 1 343 1620 135 337 0 0 209 347 939 84 32 938 cde7ab14fcba9
c565f2a64543b7b928a81 1 347 1621 135 234 0 0 343 340 940 84 32 939 5f41403326d1e
7cbcfb4e2a4ea32dd1d81 1 340 1622 135 229 0 0 347 338 941 84 32 940 773ddebf3b276
3e9fabe32cc5371dae584 32 941 c6affa96761dbb057ea7a770da8148d317 52 0 116 325 942
 50 69 212 0 323 +17 325 0 116 122 52 36 323 339 0 0 +17 942 0 116 52 119 67 197
 185 0 0 -17 69 0 373 63 348 67 52 212 0 218 -17 323 0 322 943 314 50 325 339 0
 348 -17 943 0 322 335 323 49 348 234 0 0 -17 348 0 373 69 58 50 943 234 0 0 +15
 373 756 0 58 368 0 17 58 0 373 348 63 49 944 226 0 349 +17 63 0 373 58 69 61 21
8 204 0 944 -17 944 0 381 945 349 61 58 226 0 933 -17 349 0 381 944 60 49 335 22
9 0 943 +15 381 766 0 60 376 0 17 60 0 381 349 945 56 48 211 0 335 +17 335 0 322
 333 943 56 349 229 0 336 -17 336 0 377 48 210 56 333 337 0 0 +15 377 761 0 210
 372 0 17 48 0 377 946 336 44 60 211 0 945 -17 210 0 377 336 946 53 327 207 0 33
3 +17 946 0 377 210 48 64 202 199 0 327 -17 327 0 170 171 55 64 210 207 0 0 -17
 171 0 170 82 327 95 66 181 0 0 -17 66 0 947 202 160 64 171 181 0 946 +15 947 45
 0 149 439 0 17 202 0 947 933 66 44 946 199 0 0 +17 160 0 947 66 149 95 92 156 0
 171 +17 149 0 947 160 180 90 42 146 0 0 +17 92 0 641 88 97 90 160 156 0 822 -15
 641 1159 0 88 630 0 17 97 0 641 92 826 95 82 150 0 160 -17 822 0 658 42 820 90
 88 175 0 149 -15 658 1169 0 40 650 0 17 42 0 658 40 822 28 149 146 0 180 -17 40
 0 658 820 42 86 35 41 0 130 +17 180 0 947 149 197 28 38 151 0 0 +17 197 0 947 1
80 218 93 942 185 0 0 +17 38 0 37 121 35 93 180 151 0 119 -15 37 1164 0 121 640
 0 17 119 0 116 942 85 93 121 165 0 197 -17 218 0 947 197 933 67 63 204 0 942 +1
7 933 0 947 218 202 61 945 203 0 0 +17 945 0 381 60 944 44 933 203 0 202 -17 130
 0 110 128 823 86 820 141 0 39 -17 823 0 110 130 111 79 826 139 0 0 -17 39 0 37
 35 121 86 128 131 0 0 +17 111 0 110 823 34 80 113 133 0 826 -17 826 0 641 97 88
 80 823 139 0 0 +16 139 1106 948 ?826 828 133 143 0 0 1 81 1 948 1638 135 139 0
 0 148 159 949 81 1 148 1637 135 146 0 0 173 948 950 81 1 159 1639 135 156 0 0 9
48 824 951 84 32 949 efd0d7b798fcb177fa6a4b2f0250aea784 32 951 4097a30ea99f6677d
6abead925b79bef81 1 173 1636 135 41 0 0 172 148 952 84 32 950 9fc87cdc2bee809e12
3f17b139f7c4cf84 32 952 93cda573837418495186a05d6cdcede917 113 0 170 32 82 10 11
1 133 0 0 +17 32 0 170 72 113 101 27 33 0 329 -17 329 0 509 109 320 101 72 290 0
 0 -15 509 1272 0 109 357 953 17 109 0 509 123 329 98 31 126 0 117 -17 320 0 509
 329 123 70 75 331 0 0 -17 123 0 509 320 109 73 117 124 0 0 -17 75 0 312 43 313
 73 320 331 0 122 +17 122 0 116 117 325 73 43 321 0 123 -17 31 0 29 27 100 101 1
09 126 0 32 +15 953 111 0 954 357 0 17 954 0 953 954 954 0 296 293 0 0 -17 296 0
 457 296 296 0 954 293 0 0 +15 457 99 0 296 438 955 15 955 63 0 956 438 0 17 956
 0 955 956 956 0 289 198 0 0 -17 289 0 957 289 289 0 956 198 0 0 +15 957 82 0 28
9 441 0 17 925 0 667 925 925 0 958 19 0 0 +15 667 1326 0 925 657 884 17 958 0 95
9 958 958 0 925 19 0 0 -15 959 1259 0 958 15 960 15 960 1520 0 873 15 0 17 873 0
 960 873 873 0 961 865 0 0 +17 961 0 962 961 961 0 873 865 0 0 -15 962 1545 0 96
1 684 0 81 1 872 1606 135 865 0 0 963 868 964 84 32 923 057d73e9e78703454e7ba053
3c4107d881 1 963 1605 135 187 0 0 830 872 965 84 32 964 51b54977f274c3af79cc18d8
0eb2b56716 187 880 963 ?966 204 331 182 0 0 1 81 1 830 1604 135 828 0 0 249 963
 967 84 32 965 e5d7d502af83c97fa4ffa2510aae150781 1 249 1602 135 244 0 0 246 830
 968 84 32 967 7b6e14d4fe6e741842c113b5fb5cc94481 1 246 1601 135 240 0 0 295 249
 969 84 32 968 a30ba8e92bb458667e3382bb2689707781 1 295 1600 135 293 0 0 970 246
 971 84 32 969 08bcc906b28932830b6bb2fee841ea5681 1 970 1599 135 192 0 0 232 295
 972 84 32 971 dd6ce63c3950de34d1a8b14feabc074816 192 553 970 ?973 240 230 189 0
 0 1 81 1 232 1598 135 230 0 0 242 970 974 84 32 972 3a5f2a779483ebbb2a5a117ee60
6830581 1 242 1597 135 239 0 0 237 232 975 84 32 974 41fdca448e87e82b4abc3d4e0ab
f4e3281 1 237 1596 135 235 0 0 253 242 976 84 32 975 461ef8bad0b1aee5f3261a2f35a
6fa3081 1 253 1595 135 251 0 0 257 237 977 84 32 976 c701685e0a352afcaaf0000593e
c1a4481 1 257 1594 135 255 0 0 262 253 978 84 32 977 26a45687d969ef351e1a70c99bb
a0ece81 1 262 1593 135 260 0 0 266 257 979 84 32 978 272256f57c491cf04aa5cf4ec08
f04a381 1 266 1592 135 259 0 0 274 262 980 84 32 979 1ff99dad29a8f4820929ed20757
fbf0381 1 274 1591 135 264 0 0 270 266 981 84 32 980 17a96111d2af75d0abe4541a4bf
643d481 1 270 1590 135 268 0 0 301 274 982 84 32 981 f4cadde7b59df7dce620bd3a259
8710481 1 301 1589 135 297 0 0 304 270 983 84 32 982 3a585f1f7013efab826d64f89fe
aa9d384 32 983 75f29cc9da035c7c5c249101780deed017 973 0 406 973 973 0 984 192 0
 0 +15 406 541 0 973 396 985 17 984 0 986 984 984 0 973 192 0 0 -15 986 560 0 98
4 384 0 15 985 342 0 987 396 0 17 987 0 985 987 987 0 258 255 0 0 -17 258 0 409
 258 258 0 987 255 0 0 +15 409 346 0 258 405 988 15 988 347 0 989 405 0 17 989 0
 988 989 989 0 254 251 0 0 -17 254 0 990 254 254 0 989 251 0 0 +15 990 351 0 254
 388 0 17 966 0 610 966 966 0 991 187 0 0 +15 610 914 0 966 380 843 17 991 0 992
 991 991 0 966 187 0 0 -15 992 854 0 991 15 959 17 869 0 694 869 869 0 993 866 0
 0 +15 694 1544 0 869 684 962 17 993 0 702 993 993 0 869 866 0 0 -15 702 1550 0
 993 693 0 17 864 0 746 864 864 0 994 856 0 0 +15 746 1863 0 864 737 847 17 994
 0 754 994 994 0 864 856 0 0 -15 754 1868 0 994 745 995 15 995 1869 0 996 745 0
 17 996 0 995 996 996 0 855 849 0 0 -17 855 0 738 855 855 0 996 849 0 0 +15 738
 1859 0 855 727 0 15 847 1864 0 845 737 0 81 1 686 1999 135 850 0 0 644 848 997
 17 858 0 720 858 858 0 998 850 0 0 +15 720 1854 0 858 710 905 17 998 0 711 998
 998 0 858 850 0 0 -15 711 1845 0 998 701 0 84 32 997 77914b6200312ff9f7168e26a8
650ee584 32 853 2edc13efbf1f54983cf87b56cd82aac284 32 840 ca400670a064025adb6b2e
b96b06e35884 32 825 d3aec8bd3456d75c8be5558a8916fa1484 32 821 d5c8bcbd86c57f21dd
5c6a6a8ba656a381 1 818 1645 135 126 0 0 125 114 999 81 1 125 1644 135 108 0 0 13
2 818 1000 81 1 114 1646 135 104 0 0 818 485 1001 84 32 999 d78e768ed075b10ef19b
3f4460371fe784 32 1001 1f4c606c79cf2a04e8bcc69415eebd9d84 32 1000 8183e69627bcaa
0396eb36275311615650 642 1175 0 630 631 651 0 +.0035 -.00606217782649107 -.0012
 -.866025403784439 -.5 0 .5 -.866025403784439 0 50 651 1173 0 640 642 659 0 +-.0
0175 -.003031088913245535 -.0012 -.866025403784439 .5 0 -.5 -.866025403784439 0
 52 659 1172 0 650 651 365 0 +0 0 -.0012 0 0 -1 .007 .03489949670250095 .9993908
27019096 -1 1224606353822376e-31 0 51 365 930 0 380 659 360 0 +-.005 -9184850993
60515e-33 -.0151242808822751 0 0 -1 9e-4 -1 0 0 50 764 1970 0 753 781 773 0 +.00
5 3061819224493265e-34 -7e-4 0 0 1 -1 1224606353822376e-31 0 50 781 1971 0 771 8
00 764 0 +.005 3061819224493265e-34 -.0017 0 0 -1 1 -1224606353822376e-31 0 51 8
00 1972 0 789 791 781 0 +.005 -612303176911189e-33 -.0017 0 0 -1 8e-4 1 -1224606
353822376e-31 0 50 791 1973 0 779 0 800 0 +.005 -612303176911189e-33 -.012 0 0 -
1 1 -1224606353822376e-31 0 83 3 803 .6 .6 .6 84 32 801 3d9f2cc48ed4ea96c98dc437
c4bb04b283 3 795 .6 .6 .6 84 32 793 0d2a3c23348c132630e9f16f9781eb5e83 3 785 .6
 .6 .6 84 32 783 4a7ecdaa3b7d378a5eb06532b35429a083 3 776 .6 .6 .6 84 32 774 7a5
7fefc6dd30a23460308fe975a1e0683 3 768 .6 .6 .6 84 32 766 30389ff662b748de26c6909
0878564e483 3 758 .6 .6 .6 84 32 756 3ea321b903a8ace7bfd282779d36784e83 3 750 .6
 .6 .6 84 32 748 41691bc2530fc2acfd43b74beef4fc5e83 3 742 .6 .6 .6 84 32 740 918
7195f17aad335d4663091b0b875fc83 3 733 .6 .6 .6 84 32 731 b60bf92a7b674dffc017ef0
d3be836e483 3 724 .6 .6 .6 84 32 722 faff4fa738c634a5ea00d6fa2a03d0cd83 3 716 .6
 .6 .6 84 32 714 ba8c9950339c4501451f638ea9513c4983 3 706 .6 .6 .6 84 32 704 b8e
513a1205272e42044a7162888131683 3 698 .6 .6 .6 81 1 467 1677 135 118 0 463 590 6
90 1002 84 32 696 ec2ff09c9c57c1e6db0af87d2d441a2484 32 1002 011fd26efde98bcdfab
48f52849aafd583 3 689 .6 .6 .6 84 32 687 dbc6b9b95e165b1ee46839cac034d1a083 3 68
1 .6 .6 .6 84 32 679 851b001797f1faa5b939a8dcadfc46e683 3 673 .6 .6 .6 84 32 671
 e238f46b6dc9cb5dae2897877f1b60d083 3 662 .6 .6 .6 84 32 660 0bd3d78f3fbc85237a3
c44f384c2ed8083 3 654 .6 .6 .6 84 32 652 9f2172ed5d78be7bdc2169d48cdfb19d83 3 64
7 .6 .6 .6 84 32 645 0dffb72804eee57510b93d0e922016a083 3 636 .6 .6 .6 84 32 634
 1608f1b10cd7effe20fc19cb5c3be21583 3 626 .6 .6 .6 84 32 624 ecca4eab8e0dd2ad73a
545784f6fcf7f83 3 621 .6 .6 .6 84 32 620 8f419e9c6012c127f045a0477345a0ac83 3 61
5 .6 .6 .6 84 32 613 720734c399e5f19eb43e2ca088e55c1a83 3 606 .6 .6 .6 84 32 604
 96393e3f87374c9302f838902fa4e12c83 3 601 .6 .6 .6 84 32 600 6f129f3b0c8cd5bb9f1
f2114c5479e9683 3 597 .6 .6 .6 84 32 596 9c47ec95159f8bdf793af5cdb21a35fd83 3 59
2 .6 .6 .6 84 32 591 ba2cdde427d2e58da78b7d00628a3fd883 3 585 .6 .6 .6 81 1 561
 1666 135 15 0 468 556 579 1003 84 32 584 59c3c23a543f9ffa716f6995cf91034d81 1 4
68 2027 466 15 561 391 0 463 1004 84 32 1003 62f40cafe2cac4fd3faec8d3140dabbf83
 1 1004 0 83 3 581 .6 .6 .6 84 32 580 a43b2bc92e5478b924ae266346cf36de83 3 576 .
6 .6 .6 84 32 575 513771d2d1f35c0a7cba57e71c0e6d8283 3 572 .6 .6 .6 84 32 571 a2
c8af98a2069bb583a5114b5443af1183 3 568 .6 .6 .6 84 32 567 8a4383aeb7a97580666cd8
463f43f21883 3 563 .6 .6 .6 84 32 562 1e0a74abd5a36358a4a9a86d0f46ca9283 3 558 .
6 .6 .6 84 32 557 1d435e47919443cef94b13d4946a7f5483 3 551 .6 .6 .6 84 32 550 6f
f52559e561db692db4b23b4f5c61ae83 3 546 .6 .6 .6 84 32 545 5bc921d797426dc259ef0a
95ac2d926283 3 541 .6 .6 .6 84 32 540 73e1af648bb8996c8b3e5cece71a3f0583 3 536 .
6 .6 .6 84 32 535 3ba8e96a81bb3fb295acca94e88c47b983 3 531 .6 .6 .6 84 32 530 37
0fdcdb7f412b39408c2ccb2df8e11115 528 234 0 308 17 1005 17 308 0 528 308 308 0 30
5 303 0 0 -15 1005 235 0 1006 17 0 17 1006 0 1005 1006 1006 0 302 297 0 0 -17 30
2 0 432 302 302 0 1006 297 0 0 +15 432 210 0 302 428 0 83 3 525 .6 .6 .6 84 32 5
23 eeff3aa8e1572f7991b26cc4c7f2697483 3 519 .6 .6 .6 81 1 477 1653 135 435 0 474
 494 514 1007 84 32 518 a5e5107e1b1339725e145c1170eb736784 32 1007 b7e6728c2ec8d
18f3d1366663a7d9ede83 3 513 .6 .6 .6 84 32 512 17560cdaff041da35be49eddb61c8b788
3 3 505 .6 .6 .6 84 32 503 d274e0e50b309d5d56a9ff6b93db713783 3 500 .6 .6 .6 81
 1 473 1649 135 439 0 469 481 493 1008 84 32 499 5746408baa0a77fac9fb2f81b35be14
684 32 1008 90afed9f50e463e195eb273a468dc43d83 3 496 .6 .6 .6 84 32 495 147e00a8
c56cdd9f6575eab79cdfac5084 32 489 6248e6ec8f1f81f755ff1d9b22fc0df984 32 486 b5cb
8e95e474e4ee500f399cdf9f7d4d79 21 484 SDL/TYSA_TRANSLUCENCY83 1 479 0 83 1 475 0
 83 3 471 .6 .6 .6 83 1 470 0 79 15 465 SDL/TYSA_COLOUR83 3 461 .6 .6 .6 15 455
 49 0 286 444 1009 17 286 0 455 286 286 0 1010 186 0 0 +15 1009 50 0 283 444 0 1
7 283 0 1009 283 283 0 1011 280 0 0 +17 1011 0 1012 1011 1011 0 283 280 0 0 -15
 1012 46 0 1011 439 947 17 1010 0 1013 1010 1010 0 286 186 0 0 -15 1013 42 0 101
0 449 0 15 452 322 0 250 449 1013 17 250 0 452 250 250 0 1014 244 0 0 +17 1014 0
 402 1014 1014 0 250 244 0 0 -15 402 488 0 1014 397 1015 15 1015 489 0 1016 397
 0 17 1016 0 1015 1016 1016 0 238 235 0 0 -17 238 0 1017 238 238 0 1016 235 0 0
 +15 1017 500 0 238 15 992 15 448 289 0 267 439 1018 17 267 0 448 267 267 0 1019
 259 0 0 +15 1018 255 0 275 439 1012 17 275 0 1018 275 275 0 1020 264 0 0 +17 10
20 0 1021 1020 1020 0 275 264 0 0 -15 1021 274 0 1020 416 0 17 1019 0 1022 1019
 1019 0 267 259 0 0 -15 1022 308 0 1019 401 0 15 445 81 0 1023 441 957 17 1023 0
 445 1023 1023 0 279 276 0 0 -17 279 0 440 279 279 0 1023 276 0 0 +15 440 76 0 2
79 435 1024 15 1024 151 0 300 435 0 17 300 0 1024 300 300 0 1025 272 0 0 +17 102
5 0 1026 1025 1025 0 300 272 0 0 -15 1026 178 0 1025 431 0 15 307 218 0 305 431
 1026 15 427 273 0 271 416 1021 17 271 0 427 271 271 0 1027 268 0 0 +17 1027 0 4
24 1027 1027 0 271 268 0 0 -15 424 267 0 1027 421 0 15 420 307 0 263 401 1022 17
 263 0 420 263 263 0 1028 260 0 0 +17 1028 0 417 1028 1028 0 263 260 0 0 -15 417
 301 0 1028 413 0 15 412 445 0 247 388 990 17 247 0 412 247 247 0 1029 240 0 0 +
17 1029 0 1030 1029 1029 0 247 240 0 0 -15 1030 495 0 1029 393 0 15 398 494 0 24
3 393 1030 17 243 0 398 243 243 0 1031 239 0 0 +17 1031 0 392 1031 1031 0 243 23
9 0 0 -15 392 501 0 1031 15 1017 15 389 559 0 233 384 986 17 233 0 389 233 233 0
 1032 230 0 0 +17 1032 0 385 1032 1032 0 233 230 0 0 -15 385 564 0 1032 369 0 14
1 359 350 1033 1033 18 141 1033 814 359 359 18 84 32 342 6b72ca92cd37b66ac58c9e7
298d4253681 1 196 1629 135 185 0 0 309 292 1034 84 32 311 1f4fb1bd3bace38115ec30
84097675b381 1 292 1630 135 124 0 0 196 140 1035 84 32 1034 44a5473cafe5428b785a
4977d8c77c0581 1 140 1631 135 131 0 0 292 167 1036 84 32 1035 0fed3df55d5a097731
dfa1f225597d3681 1 167 1632 135 151 0 0 140 164 1037 84 32 1036 afdec418ee7bb839
8230721b9f2b34bd84 32 1037 9b227521a1611635bdb515298022493481 1 299 1587 135 272
 0 0 288 304 1038 84 32 306 63b9d3e566aa4196502bf999b390838381 1 288 1586 135 19
8 0 0 278 299 1039 84 32 1038 1bc881dc0e2b181e05ce960758d3422481 1 278 1585 135
 276 0 0 282 288 1040 84 32 1039 adc26d9734fcd2fb51c81457ca5606f881 1 282 1584 1
35 280 0 0 285 278 1041 84 32 1040 10f49c4e72fbef3f796898571761bdf281 1 285 1583
 135 186 0 0 0 282 1042 84 32 1041 1aa4be1b1bb471db6e48ad94270b21e584 32 1042 cd
1194a4d22cc76277f1039df1e99a5c84 32 174 eaa3efb21cb5708108b21021ff63d93e84 32 16
9 152f218559f1734a0a3b5ba5de6ec94f141 162 161 162 162 157 84 32 137 a6f5e9877863
5cded286a1c1d0ab30e819 16 5 0 1 0 8 4 S0 74 4 CI16 index_map_offset0 0 1 dCCZ20
 14 6 0 0 1043 792 12 796 802 2 0 0 0 0 0 0 0 0 0 0 0 0 0 0 81 1 1043 1581 1044
 1 0 12 0 0 1045 81 2 12 1998 1046 1 1043 2 0 0 1047 1048 80 2 1046 1049 1050 80
04 0 0 0 0 3 5 0 0 0 FFTFFFFFFFFFFF2 3 83 1 1047 .001 84 8 1048 Kg/Cu M 79 16 10
50 SDL/TYSA_DENSITY80 1 1044 1051 1052 9000 0 0 0 0 3 5 0 0 0 FFTFFFFFFFFFFF1 82
 255 1 1045 -1 79 19 1052 UG2/PMARK_ATTRIBUTE80 1 11 1053 1054 9000 0 0 0 0 3 5
 0 0 0 FFTFFFFFFFFFFF1 82 1 13 87 79 24 1054 UG2/BODY_COLOR_ATTRIBUTE1 0 
